<?xml version="1.0" standalone="no"?>
<!DOCTYPE svg PUBLIC "-//W3C//DTD SVG 20010904//EN"
 "http://www.w3.org/TR/2001/REC-SVG-20010904/DTD/svg10.dtd">
<svg version="1.0" xmlns="http://www.w3.org/2000/svg"
 width="1800.000000pt" height="1350.000000pt" viewBox="0 0 1800.000000 1350.000000"
 preserveAspectRatio="xMidYMid meet">

<g transform="translate(0.000000,1350.000000) scale(0.100000,-0.100000)"
fill="#000000" stroke="none">
<path d="M8910 12235 l0 -135 65 0 c113 0 169 47 169 141 0 89 -52 129 -169
129 l-65 0 0 -135z m153 64 c19 -23 23 -89 7 -119 -9 -17 -58 -40 -86 -40 -11
0 -14 22 -14 96 l0 97 38 -6 c20 -4 45 -16 55 -28z"/>
<path d="M11140 12235 l0 -135 30 0 c30 0 30 1 30 55 l0 55 50 0 c47 0 50 2
50 25 0 23 -3 25 -50 25 -49 0 -50 1 -50 29 0 29 2 30 53 33 45 3 52 6 55 26
3 21 1 22 -82 22 l-86 0 0 -135z"/>
<path d="M13610 12234 l0 -136 75 4 c60 3 79 8 97 25 28 28 29 80 1 103 -20
16 -20 17 -2 39 25 31 24 47 -6 76 -21 22 -33 25 -95 25 l-70 0 0 -136z m124
73 c9 -15 7 -21 -8 -33 -32 -23 -53 -18 -58 16 -3 17 -2 33 1 36 11 11 54 -2
65 -19z m1 -103 c14 -14 14 -19 2 -38 -8 -11 -26 -22 -39 -24 -20 -2 -26 2
-30 20 -7 39 2 58 27 58 13 0 31 -7 40 -16z"/>
<path d="M1760 12343 c-94 -48 -90 -199 5 -239 36 -15 94 -18 133 -8 20 6 22
12 22 75 l0 69 -45 0 c-38 0 -45 -3 -45 -20 0 -13 7 -20 20 -20 16 0 20 -7 20
-30 0 -27 -3 -30 -33 -30 -45 0 -75 24 -83 66 -13 71 39 117 119 106 36 -5 39
-3 35 19 -3 22 -9 24 -58 27 -37 2 -66 -3 -90 -15z"/>
<path d="M4085 12348 c-9 -26 -75 -249 -75 -254 0 -2 13 -4 29 -4 23 0 30 6
37 33 9 29 14 32 50 35 39 3 41 1 50 -30 8 -28 15 -34 43 -36 28 -3 33 -1 27
14 -3 9 -23 70 -43 135 l-37 119 -38 0 c-22 0 -41 -5 -43 -12z m59 -101 l14
-47 -29 0 c-32 0 -34 7 -18 63 12 46 15 45 33 -16z"/>
<path d="M15983 12344 c-40 -20 -59 -48 -66 -99 -14 -94 46 -158 143 -153 47
3 55 6 55 23 0 16 -8 21 -35 23 -63 5 -79 12 -96 43 -35 69 5 133 84 134 40 0
47 3 47 20 0 17 -8 20 -50 23 -31 1 -62 -4 -82 -14z"/>
<path d="M16177 12333 c-4 -22 -1 -23 54 -23 33 0 59 -2 59 -5 0 -3 -23 -50
-50 -105 l-50 -100 30 0 c28 0 33 7 85 111 31 61 55 118 53 126 -2 12 -22 15
-90 16 -83 2 -87 1 -91 -20z"/>
<path d="M1970 12325 c0 -24 3 -25 55 -25 31 0 55 -5 55 -10 0 -6 -23 -53 -50
-105 l-50 -95 30 0 c28 0 33 7 85 110 76 152 76 150 -35 150 -89 0 -90 0 -90
-25z"/>
<path d="M6628 12310 c-102 -55 -88 -214 20 -249 58 -18 112 -8 112 22 0 20
-5 22 -51 22 -62 0 -89 26 -89 87 0 56 34 88 93 88 32 0 47 5 51 16 9 23 3 26
-51 31 -35 2 -58 -2 -85 -17z"/>
<path d="M11349 12296 c-2 -2 -3 -47 -1 -100 3 -94 4 -96 28 -96 23 0 24 3 24
59 0 72 6 91 31 91 26 0 39 -30 39 -94 0 -53 1 -56 25 -56 24 0 25 3 25 59 0
75 6 91 35 91 29 0 35 -16 35 -91 0 -56 1 -59 25 -59 25 0 25 1 25 78 0 90
-15 122 -58 122 -15 0 -37 -7 -49 -15 -18 -13 -22 -13 -33 0 -15 18 -53 19
-82 4 -11 -6 -23 -7 -27 -3 -7 10 -35 16 -42 10z"/>
<path d="M4363 12275 c-14 -10 -24 -12 -28 -5 -3 5 -16 10 -28 10 -21 0 -22
-3 -19 -95 3 -93 4 -95 27 -95 23 0 24 4 27 66 2 52 7 69 21 78 30 18 49 -18
44 -86 -4 -58 -4 -58 24 -58 28 0 28 1 31 66 2 52 7 69 21 78 28 17 47 -17 47
-86 0 -55 1 -58 25 -58 24 0 25 2 25 76 0 41 -4 84 -10 94 -13 25 -55 33 -88
17 -22 -11 -31 -12 -52 -1 -32 17 -41 17 -67 -1z"/>
<path d="M8070 10575 l0 -1375 900 0 900 0 0 825 0 825 33 13 c48 21 69 51 74
104 5 60 -21 106 -72 127 l-35 15 0 420 0 421 -900 0 -900 0 0 -1375z m358
953 l2 -278 -165 0 -165 0 0 273 c0 151 3 277 7 281 4 3 77 5 162 4 l156 -3 3
-277z m350 0 l2 -278 -160 0 -160 0 0 280 0 281 158 -3 157 -3 3 -277z m350 0
l2 -278 -160 0 -160 0 0 273 c0 151 3 277 7 281 4 3 75 5 157 4 l151 -3 3
-277z m360 0 l2 -278 -165 0 -165 0 0 273 c0 151 3 277 7 281 4 3 77 5 162 4
l156 -3 3 -277z m350 0 l2 -278 -160 0 -160 0 0 280 0 281 158 -3 157 -3 3
-277z m-1408 -553 l0 -235 -165 0 -165 0 0 235 0 235 165 0 165 0 0 -235z
m350 0 l0 -235 -160 0 -160 0 0 235 0 235 160 0 160 0 0 -235z m350 180 c0
-44 -3 -55 -16 -55 -26 0 -82 -63 -89 -102 -10 -51 23 -113 70 -129 35 -13 35
-14 35 -71 l0 -58 -160 0 -160 0 0 235 0 235 160 0 160 0 0 -55z m358 -177
l-3 -233 -162 -3 -163 -2 0 54 c0 53 1 55 37 73 51 25 76 62 75 114 -1 52 -25
87 -75 112 -35 18 -37 21 -37 68 l0 49 165 0 165 0 -2 -232z m352 179 c0 -51
-1 -53 -34 -65 -42 -15 -76 -66 -76 -113 0 -47 33 -97 75 -115 34 -14 35 -16
35 -69 l0 -55 -160 0 -160 0 0 235 0 235 160 0 160 0 0 -53z m-1410 -682 l0
-235 -165 0 -165 0 0 235 0 235 165 0 165 0 0 -235z m350 0 l0 -235 -160 0
-160 0 0 235 0 235 160 0 160 0 0 -235z m350 0 l0 -235 -160 0 -160 0 0 235 0
235 160 0 160 0 0 -235z m360 181 c0 -54 -1 -55 -36 -66 -98 -33 -98 -196 0
-231 35 -13 36 -14 36 -66 l0 -53 -165 0 -165 0 0 235 0 235 165 0 165 0 0
-54z m350 -181 l0 -235 -160 0 -160 0 0 53 c0 51 1 54 35 70 41 20 75 70 75
112 0 42 -34 92 -75 112 -34 16 -35 19 -35 70 l0 53 160 0 160 0 0 -235z
m-1415 -505 l0 -235 -160 0 -160 0 -3 225 c-1 123 0 230 3 238 3 10 40 12 162
10 l158 -3 0 -235z m350 0 l0 -235 -157 -3 -158 -3 0 241 0 241 158 -3 157 -3
0 -235z m355 0 l0 -241 -157 3 -158 3 -3 225 c-1 123 0 230 2 237 4 10 44 13
161 13 l155 0 0 -240z m355 0 l0 -235 -160 0 -160 0 -3 225 c-1 123 0 230 3
238 3 10 40 12 162 10 l158 -3 0 -235z m355 0 l0 -240 -160 0 -160 0 0 240 0
240 160 0 160 0 0 -240z m-1410 -505 l0 -235 -165 0 -165 0 0 235 0 235 165 0
165 0 0 -235z m350 0 l0 -235 -160 0 -160 0 0 235 0 235 160 0 160 0 0 -235z
m350 0 l0 -235 -160 0 -160 0 0 235 0 235 160 0 160 0 0 -235z m360 0 l0 -235
-165 0 -165 0 0 235 0 235 165 0 165 0 0 -235z m350 0 l0 -235 -160 0 -160 0
0 235 0 235 160 0 160 0 0 -235z"/>
<path d="M10500 11806 l0 -144 -37 -19 c-51 -25 -76 -62 -76 -113 0 -51 25
-88 76 -113 l37 -19 0 -1099 0 -1099 900 0 900 0 0 1105 c0 949 2 1105 14
1105 26 0 75 51 87 90 10 33 9 44 -10 82 -14 30 -32 50 -56 61 l-35 17 0 145
0 145 -900 0 -900 0 0 -144z m350 -71 l0 -75 -160 0 -160 0 0 75 0 75 160 0
160 0 0 -75z m350 0 l0 -75 -160 0 -160 0 0 75 0 75 160 0 160 0 0 -75z m360
0 l0 -75 -165 0 -165 0 0 68 c0 38 3 72 7 75 3 4 78 7 165 7 l158 0 0 -75z
m350 0 l0 -75 -160 0 -160 0 0 75 0 75 160 0 160 0 0 -75z m355 0 l0 -70 -162
-3 -163 -2 0 75 0 75 163 -2 162 -3 0 -70z m-1415 -405 l0 -80 -160 0 -160 0
0 80 0 80 160 0 160 0 0 -80z m350 0 l0 -80 -160 0 -160 0 0 73 c0 41 3 77 7
80 3 4 75 7 160 7 l153 0 0 -80z m358 -2 l3 -78 -166 0 -165 0 0 80 0 80 163
-2 162 -3 3 -77z m352 2 l0 -80 -160 0 -160 0 0 80 0 80 160 0 160 0 0 -80z
m358 -2 l3 -78 -166 0 -165 0 0 73 c0 41 3 77 7 81 4 3 77 5 162 4 l156 -3 3
-77z m-1423 -348 l0 -235 -157 -3 -158 -3 0 241 0 241 158 -3 157 -3 0 -235z
m355 0 l0 -241 -157 3 -158 3 -3 238 -2 237 160 0 160 0 0 -240z m358 3 l-3
-238 -160 0 -160 0 -3 238 -2 237 165 0 165 0 -2 -237z m352 -3 l0 -240 -160
0 -160 0 0 240 0 240 160 0 160 0 0 -240z m355 0 l0 -235 -160 0 -160 0 -3
238 -2 237 162 -2 163 -3 0 -235z m-1415 -325 c0 -49 -2 -55 -24 -61 -40 -10
-78 -58 -83 -106 -6 -52 25 -105 74 -128 31 -14 33 -18 33 -67 l0 -53 -160 0
-160 0 0 235 0 235 160 0 160 0 0 -55z m350 2 c0 -51 -2 -54 -35 -70 -45 -21
-70 -61 -70 -112 0 -51 25 -91 70 -112 33 -16 35 -19 35 -70 l0 -53 -160 0
-160 0 0 55 c0 49 2 55 24 61 13 3 37 19 52 35 25 26 29 39 29 84 0 45 -4 58
-29 84 -15 16 -39 32 -52 35 -22 6 -24 12 -24 61 l0 55 160 0 160 0 0 -53z
m360 -182 l0 -235 -165 0 -165 0 0 53 c0 51 1 53 35 66 52 18 75 54 75 116 0
62 -23 98 -75 116 -34 13 -35 15 -35 66 l0 53 165 0 165 0 0 -235z m350 0 l0
-235 -160 0 -160 0 0 235 0 235 160 0 160 0 0 -235z m360 0 l0 -235 -165 0
-165 0 0 235 0 235 165 0 165 0 0 -235z m-1422 -502 l-3 -238 -157 -3 -158 -3
0 241 0 240 160 0 160 0 -2 -237z m352 -3 l0 -240 -160 0 -160 0 0 240 0 240
160 0 160 0 0 -240z m358 3 l-3 -238 -160 0 -160 0 -3 225 c-1 123 0 230 2
237 4 10 45 13 166 13 l160 0 -2 -237z m352 -3 l0 -240 -160 0 -160 0 0 240 0
240 160 0 160 0 0 -240z m355 0 l0 -235 -160 0 -160 0 -3 238 -2 237 162 -2
163 -3 0 -235z m-1415 -505 l0 -235 -160 0 -160 0 0 235 0 235 160 0 160 0 0
-235z m350 0 l0 -235 -160 0 -160 0 0 235 0 235 160 0 160 0 0 -235z m360 0
l0 -235 -165 0 -165 0 0 235 0 235 165 0 165 0 0 -235z m350 0 l0 -235 -160 0
-160 0 0 235 0 235 160 0 160 0 0 -235z m355 0 l0 -230 -162 -3 -163 -2 0 235
0 235 163 -2 162 -3 0 -230z"/>
<path d="M12810 10575 l0 -1375 898 0 897 0 -3 825 -2 825 41 17 c32 12 46 26
60 57 23 51 23 69 2 113 -12 25 -29 41 -60 55 l-43 19 0 419 0 420 -895 0
-895 0 0 -1375z m350 955 l0 -280 -160 0 -160 0 0 273 c0 151 3 277 7 280 3 4
75 7 160 7 l153 0 0 -280z m350 273 c0 -5 2 -131 4 -280 l3 -273 -163 0 -164
0 0 273 c0 151 3 277 7 280 9 10 313 9 313 0z m358 -276 l2 -277 -162 2 c-90
2 -162 6 -160 11 1 4 2 129 2 277 l0 271 158 -3 157 -3 3 -278z m352 3 l0
-280 -160 0 -159 0 -3 276 c-2 152 -1 278 1 280 2 2 76 4 163 4 l158 0 0 -280z
m350 0 l0 -280 -160 0 -160 0 0 273 c0 151 3 277 7 280 3 4 75 7 160 7 l153 0
0 -280z m-1410 -375 c0 -48 -2 -55 -20 -55 -11 0 -34 -13 -51 -28 -65 -58 -42
-182 39 -206 31 -9 32 -10 32 -67 l0 -59 -160 0 -160 0 0 235 0 235 160 0 160
0 0 -55z m356 39 c-3 -9 -6 -31 -6 -50 l0 -34 -160 0 -160 0 0 50 0 50 166 0
c147 0 165 -2 160 -16z m354 -34 l0 -50 -160 0 -160 0 0 50 0 50 160 0 160 0
0 -50z m350 0 l0 -50 -160 0 -160 0 0 50 0 50 160 0 160 0 0 -50z m350 0 l0
-50 -160 0 -160 0 0 50 0 50 160 0 160 0 0 -50z m-1055 -360 l0 -55 -160 0
-160 0 -3 44 c-5 74 -11 72 165 69 l158 -3 0 -55z m353 -2 l3 -58 -161 0 -160
0 0 60 0 61 158 -3 157 -3 3 -57z m350 0 l3 -58 -161 0 -160 0 0 53 c0 30 3
57 7 61 4 3 75 5 157 4 l151 -3 3 -57z m354 6 c1 -31 1 -58 -1 -60 -2 -2 -76
-4 -163 -4 l-158 0 0 53 c0 30 3 57 7 60 3 4 75 7 159 7 l152 0 4 -56z m-1412
-329 l0 -235 -160 0 -160 0 0 235 0 235 160 0 160 0 0 -235z m358 -2 l2 -233
-165 0 -165 0 0 235 0 235 163 -2 162 -3 3 -232z m352 2 l0 -235 -160 0 -160
0 0 235 0 235 160 0 160 0 0 -235z m350 0 l0 -235 -160 0 -160 0 0 235 0 235
160 0 160 0 0 -235z m350 0 l0 -235 -160 0 -160 0 0 235 0 235 160 0 160 0 0
-235z m-1410 -505 l0 -240 -160 0 -160 0 0 240 0 240 160 0 160 0 0 -240z
m355 185 c0 -44 -3 -51 -27 -63 -15 -7 -38 -26 -52 -43 -49 -58 -25 -160 42
-188 26 -11 32 -20 38 -57 11 -76 14 -75 -163 -72 l-158 3 -3 225 c-1 123 0
230 3 238 3 10 40 12 162 10 l158 -3 0 -50z m353 -2 c3 -51 2 -53 -32 -67 -97
-40 -100 -180 -5 -223 l39 -18 -2 -55 -3 -55 -157 -3 -158 -3 0 58 c0 55 2 59
33 73 47 22 80 76 74 123 -7 51 -31 86 -73 103 -33 14 -34 16 -34 69 l0 56
158 -3 157 -3 3 -52z m352 2 c0 -52 -1 -55 -36 -71 -47 -23 -67 -56 -66 -110
0 -54 22 -89 67 -111 34 -16 35 -18 35 -75 l0 -58 -160 0 -160 0 0 58 c0 57 1
58 34 70 42 15 76 66 76 113 0 47 -33 97 -75 115 -33 13 -35 17 -35 62 0 27 3
52 7 55 3 4 75 7 160 7 l153 0 0 -55z m354 20 c-1 -16 -2 -123 -3 -238 l-1
-208 -157 3 -158 3 -3 55 c-3 55 -3 56 32 68 47 17 76 60 76 112 0 55 -26 97
-72 117 -36 16 -38 19 -38 63 0 26 3 50 7 54 4 3 77 5 162 4 l156 -3 -1 -30z
m-1414 -710 l0 -235 -160 0 -160 0 0 235 0 235 160 0 160 0 0 -235z m353 208
c0 -13 -1 -117 -2 -233 l-1 -210 -160 0 -160 0 0 235 0 235 162 -2 c161 -3
162 -3 161 -25z m357 -208 l0 -235 -160 0 -160 0 0 235 0 235 160 0 160 0 0
-235z m350 0 l0 -235 -160 0 -160 0 0 235 0 235 160 0 160 0 0 -235z m352 15
c0 -121 1 -226 2 -232 1 -10 -39 -14 -161 -16 l-163 -2 0 235 0 235 160 0 160
0 2 -220z"/>
<path d="M1030 11270 l0 -670 -33 -14 c-103 -43 -104 -189 0 -232 l33 -14 -2
-570 -3 -570 898 0 897 0 0 1099 0 1099 23 6 c12 3 35 19 51 35 59 61 38 164
-39 197 l-35 14 0 145 0 145 -895 0 -895 0 0 -670z m350 250 l0 -280 -160 0
-160 0 0 280 0 280 160 0 160 0 0 -280z m350 0 l0 -280 -160 0 -160 0 0 280 0
280 160 0 160 0 0 -280z m350 0 l0 -280 -160 0 -160 0 0 280 0 280 160 0 160
0 0 -280z m355 0 l0 -275 -160 0 -160 0 -3 265 c-1 146 0 270 3 278 3 10 41
12 162 10 l158 -3 0 -275z m355 205 l0 -75 -32 -13 c-48 -20 -70 -50 -75 -101
-7 -57 23 -110 73 -128 l34 -12 0 -78 0 -78 -160 0 -160 0 0 280 0 280 160 0
160 0 0 -75z m-1410 -570 c0 -52 -1 -55 -32 -68 -46 -20 -69 -49 -75 -98 -8
-56 18 -103 68 -126 37 -18 38 -19 39 -70 l0 -53 -160 0 -160 0 0 235 0 235
160 0 160 0 0 -55z m350 -179 c0 -214 -1 -234 -17 -237 -19 -4 -97 -4 -225 -1
l-78 2 0 55 c0 49 2 55 24 61 13 3 36 18 51 34 58 60 36 164 -40 196 -34 14
-35 16 -35 69 l0 55 160 0 160 0 0 -234z m350 -1 l0 -235 -160 0 -160 0 0 235
0 235 160 0 160 0 0 -235z m360 0 l0 -235 -165 0 -165 0 0 228 c0 126 3 232 7
235 3 4 78 7 165 7 l158 0 0 -235z m350 0 l0 -235 -160 0 -160 0 0 235 0 235
160 0 160 0 0 -235z m-1415 -505 l0 -235 -157 -3 -158 -3 0 58 c0 55 2 59 32
73 45 21 73 63 73 109 0 53 -21 88 -66 108 -38 18 -38 19 -39 76 l0 58 158 -3
157 -3 0 -235z m353 3 l-3 -238 -155 0 -155 0 -3 225 c-1 123 0 230 2 237 4
10 44 13 161 13 l155 0 -2 -237z m352 -3 l0 -241 -157 3 -158 3 -3 225 c-1
123 0 230 2 237 4 10 44 13 161 13 l155 0 0 -240z m355 0 l0 -235 -160 0 -160
0 -3 225 c-1 123 0 230 3 238 3 10 40 12 162 10 l158 -3 0 -235z m350 0 l0
-235 -155 0 -155 0 -3 225 c-1 123 0 230 3 238 3 10 39 12 157 10 l153 -3 0
-235z m-1405 -505 l0 -235 -160 0 -160 0 0 235 0 235 160 0 160 0 0 -235z
m350 0 l0 -235 -160 0 -160 0 0 235 0 235 160 0 160 0 0 -235z m350 0 l0 -235
-160 0 -160 0 0 235 0 235 160 0 160 0 0 -235z m358 3 l-3 -233 -160 0 -160 0
-3 233 -2 232 165 0 165 0 -2 -232z m352 -3 l0 -235 -160 0 -160 0 0 235 0
235 160 0 160 0 0 -235z m-1410 -500 l0 -235 -160 0 -160 0 0 235 0 235 160 0
160 0 0 -235z m350 0 l0 -235 -160 0 -160 0 0 235 0 235 160 0 160 0 0 -235z
m350 0 l0 -235 -160 0 -160 0 0 235 0 235 160 0 160 0 0 -235z m360 0 l0 -235
-165 0 -165 0 0 228 c0 126 3 232 7 235 3 4 78 7 165 7 l158 0 0 -235z m350 0
l0 -235 -160 0 -160 0 0 235 0 235 160 0 160 0 0 -235z"/>
<path d="M3400 10570 l0 -1370 895 0 895 0 0 1370 0 1370 -895 0 -895 0 0
-1370z m350 945 l0 -275 -160 0 -160 0 0 275 0 275 160 0 160 0 0 -275z m350
0 l0 -275 -160 0 -160 0 0 275 0 275 160 0 160 0 0 -275z m350 0 l0 -275 -160
0 -160 0 0 275 0 275 160 0 160 0 0 -275z m360 205 l0 -70 -37 -17 c-100 -49
-103 -177 -5 -223 31 -15 32 -15 32 -92 l0 -78 -160 0 -160 0 0 275 0 275 165
0 165 0 0 -70z m350 -205 l0 -275 -160 0 -160 0 0 78 c0 77 1 77 32 92 95 45
95 175 0 220 -40 19 -42 24 -35 99 l6 61 158 0 159 0 0 -275z m-1415 -545 l0
-235 -160 0 -160 0 -3 215 c-1 118 0 225 3 238 5 22 6 22 163 20 l157 -3 0
-235z m355 182 c0 -57 -1 -58 -32 -67 -39 -12 -78 -66 -78 -107 0 -51 30 -99
72 -117 38 -16 38 -16 38 -73 l0 -58 -160 0 -160 0 0 240 0 240 160 0 160 0 0
-58z m350 1 c0 -58 0 -58 -38 -74 -40 -17 -72 -65 -72 -109 0 -42 31 -89 71
-107 38 -18 38 -19 39 -76 l0 -58 -157 3 -158 3 -3 52 c-3 51 -2 52 35 72 43
22 73 66 73 106 0 48 -31 97 -72 114 -37 16 -38 17 -38 67 0 28 3 54 7 57 3 4
75 7 160 7 l153 0 0 -57z m350 -183 l0 -241 -157 3 -158 3 -3 52 c-3 51 -2 53
30 66 51 22 71 51 76 110 3 43 0 57 -19 81 -12 16 -37 35 -56 42 -31 13 -33
17 -33 62 0 27 3 52 7 55 3 4 75 7 160 7 l153 0 0 -240z m355 0 l0 -235 -157
-3 -158 -3 0 241 0 241 158 -3 157 -3 0 -235z m-1405 -505 l0 -235 -160 0
-160 0 0 238 0 237 160 -3 160 -3 0 -234z m350 -1 l0 -234 -160 0 -160 0 0
235 0 234 153 3 c83 2 155 2 160 0 4 -2 7 -109 7 -238z m350 1 l0 -236 -157 3
-158 3 -3 233 -2 232 160 0 160 0 0 -235z m350 0 l0 -235 -160 0 -160 0 0 235
0 235 160 0 160 0 0 -235z m360 0 l0 -235 -160 0 -160 0 0 235 0 235 160 0
160 0 0 -235z m-1410 -500 l0 -235 -160 0 -160 0 0 235 0 235 160 0 160 0 0
-235z m350 0 l0 -235 -160 0 -160 0 0 235 0 235 160 0 160 0 0 -235z m350 0
l0 -235 -160 0 -160 0 0 235 0 235 160 0 160 0 0 -235z m350 0 l0 -236 -157 3
-158 3 -3 233 -2 232 160 0 160 0 0 -235z m360 0 l0 -235 -160 0 -160 0 0 235
0 235 160 0 160 0 0 -235z m-1412 -502 l2 -233 -160 0 -160 0 0 235 0 236 158
-3 157 -3 3 -232z m352 2 l0 -235 -160 0 -160 0 0 235 0 235 160 0 160 0 0
-235z m350 0 l0 -235 -160 0 -160 0 0 228 c0 126 3 232 7 235 3 4 75 7 160 7
l153 0 0 -235z m350 0 l0 -235 -160 0 -160 0 0 228 c0 126 3 232 7 235 3 4 75
7 160 7 l153 0 0 -235z m360 0 l0 -235 -160 0 -160 0 0 235 0 235 160 0 160 0
0 -235z"/>
<path d="M15230 10570 l0 -1370 900 0 900 0 0 1370 0 1370 -900 0 -900 0 0
-1370z m355 950 l0 -275 -158 0 -158 0 0 273 c1 149 1 274 1 277 0 3 71 4 158
3 l157 -3 0 -275z m355 0 l0 -280 -160 0 -160 0 0 280 0 280 160 0 160 0 0
-280z m350 0 l0 -280 -160 0 -160 0 0 280 0 280 160 0 160 0 0 -280z m350 202
l0 -78 -35 -13 c-43 -15 -65 -54 -65 -114 0 -51 24 -88 70 -107 30 -12 30 -13
30 -91 l0 -80 -157 3 -158 3 -3 265 c-1 146 0 270 3 277 3 10 44 13 160 13
l155 0 0 -78z m355 -202 l0 -275 -158 0 -159 0 -1 74 -1 74 34 16 c49 24 73
62 73 114 -1 54 -23 90 -68 111 -33 16 -33 18 -37 87 -2 39 -1 73 1 75 3 3 75
3 160 2 l156 -3 0 -275z m-1410 -545 l0 -230 -150 -5 c-82 -3 -156 -4 -162 -2
-10 3 -11 56 -8 231 3 124 5 229 5 234 0 4 71 6 158 5 l157 -3 0 -230z m355
180 c0 -52 -1 -55 -32 -68 -46 -20 -69 -49 -75 -98 -8 -56 18 -103 68 -126 37
-18 38 -19 39 -70 l0 -53 -160 0 -160 0 0 235 0 235 160 0 160 0 0 -55z m350
-180 l0 -235 -160 0 -160 0 0 55 c0 49 2 55 24 61 13 3 36 18 51 34 58 60 36
164 -40 196 -34 14 -35 16 -35 69 l0 55 160 0 160 0 0 -235z m350 0 l0 -235
-160 0 -160 0 0 235 0 235 160 0 160 0 0 -235z m360 0 l0 -235 -160 0 -159 0
-3 231 c-2 127 -1 233 1 235 2 2 76 4 163 4 l158 0 0 -235z m-1412 -321 c3
-51 2 -52 -34 -70 -52 -26 -77 -63 -76 -115 1 -52 25 -87 76 -113 36 -18 37
-19 34 -70 l-3 -51 -160 0 -160 0 -3 223 c-2 123 -1 230 2 238 5 12 32 14 163
12 l158 -3 3 -51z m347 -184 l0 -235 -155 0 -155 0 -3 55 c-2 53 -1 56 30 70
96 45 97 174 0 220 -30 14 -32 18 -32 73 l0 58 158 -3 157 -3 0 -235z m355
183 c0 -58 0 -58 -38 -74 -40 -17 -72 -65 -72 -109 0 -44 32 -92 72 -109 38
-16 38 -16 38 -74 l0 -58 -157 3 -158 3 -3 225 c-1 123 0 230 2 237 4 10 44
13 161 13 l155 0 0 -57z m350 -183 l0 -241 -157 3 -158 3 -3 52 c-3 51 -2 53
32 67 51 21 78 69 73 129 -5 53 -26 83 -74 104 -31 12 -33 17 -33 61 0 27 3
52 7 55 3 4 75 7 160 7 l153 0 0 -240z m355 0 l0 -235 -160 0 -160 0 -3 225
c-1 123 0 230 3 238 3 10 40 12 162 10 l158 -3 0 -235z m-1407 -502 l-3 -233
-160 0 -160 0 -2 218 c-1 120 1 225 4 233 4 11 35 14 164 14 l159 0 -2 -232z
m352 -3 l0 -235 -160 0 -160 0 0 235 0 235 160 0 160 0 0 -235z m350 0 l0
-235 -160 0 -160 0 0 235 0 235 160 0 160 0 0 -235z m350 0 l0 -236 -157 3
-158 3 -3 233 -2 232 160 0 160 0 0 -235z m358 3 l-3 -233 -160 0 -160 0 -3
233 -2 232 165 0 165 0 -2 -232z m-1410 -505 l2 -233 -162 0 -163 0 2 232 c2
128 3 234 3 236 0 1 71 1 158 0 l157 -3 3 -232z m352 2 l0 -235 -160 0 -160 0
0 235 0 235 160 0 160 0 0 -235z m350 0 l0 -235 -160 0 -160 0 0 235 0 235
160 0 160 0 0 -235z m350 0 l0 -235 -160 0 -160 0 0 235 0 235 160 0 160 0 0
-235z m360 0 l0 -235 -162 2 -163 3 -2 224 c-1 124 0 228 3 233 3 4 77 8 165
8 l159 0 0 -235z"/>
<path d="M5770 10555 l0 -1355 890 0 890 0 0 1355 0 1355 -890 0 -890 0 0
-1355z m350 940 l0 -275 -160 0 -160 0 0 275 0 275 160 0 160 0 0 -275z m350
0 l0 -275 -160 0 -160 0 0 275 0 275 160 0 160 0 0 -275z m350 0 l0 -275 -160
0 -160 0 0 275 0 275 160 0 160 0 0 -275z m350 202 l0 -73 -35 -17 c-46 -22
-70 -61 -69 -113 1 -53 25 -91 70 -110 l34 -14 0 -75 0 -75 -160 0 -160 0 0
275 0 275 160 0 160 0 0 -73z m340 -202 l0 -275 -155 0 -155 0 0 75 0 75 33
13 c53 23 72 52 72 112 0 46 -4 58 -30 85 -16 17 -40 33 -52 36 -21 6 -23 12
-23 80 l0 74 155 0 155 0 0 -275z m-1390 -540 l0 -235 -160 0 -160 0 0 228 c0
126 3 232 7 235 3 4 75 7 160 7 l153 0 0 -235z m350 180 c0 -53 -1 -56 -34
-71 -43 -21 -66 -61 -66 -117 0 -51 24 -88 70 -107 28 -12 30 -16 30 -66 l0
-54 -160 0 -160 0 0 228 c0 126 3 232 7 235 3 4 75 7 160 7 l153 0 0 -55z
m348 -182 l2 -233 -160 0 -160 0 0 53 c1 51 1 52 40 70 52 24 74 65 67 124 -5
49 -45 100 -81 105 -18 3 -21 11 -24 61 l-3 58 158 -3 158 -3 3 -232z m350 0
l2 -233 -160 0 -160 0 0 235 0 236 158 -3 157 -3 3 -232z m342 12 c0 -124 0
-228 0 -232 0 -5 -70 -9 -155 -11 l-155 -3 0 236 0 235 155 0 155 0 0 -225z
m-1390 -330 c0 -51 -2 -55 -33 -70 -89 -42 -90 -178 -2 -219 34 -16 35 -19 35
-72 l0 -55 -157 3 -158 3 -3 233 -2 232 160 0 160 0 0 -55z m348 -177 l-3
-233 -155 0 -155 0 -3 53 c-3 43 0 53 15 58 63 20 93 59 93 121 0 52 -30 98
-74 113 -35 11 -36 12 -36 66 l0 54 160 0 160 0 -2 -232z m350 0 l-3 -233
-155 0 -155 0 -3 233 -2 232 160 0 160 0 -2 -232z m350 0 l-3 -233 -157 -3
-158 -3 0 236 0 235 160 0 160 0 -2 -232z m342 -3 l0 -235 -155 0 -155 0 0
235 0 235 155 0 155 0 0 -235z m-1390 -495 l0 -230 -160 0 -160 0 0 230 0 230
160 0 160 0 0 -230z m350 0 l0 -230 -160 0 -160 0 0 230 0 230 160 0 160 0 0
-230z m350 0 l0 -230 -160 0 -160 0 0 230 0 230 160 0 160 0 0 -230z m350 0
l0 -230 -160 0 -160 0 0 230 0 230 160 0 160 0 0 -230z m342 0 l3 -230 -157 0
-158 0 0 230 0 230 155 0 154 0 3 -230z m-1394 -497 l2 -233 -160 0 -160 0 0
228 c0 126 3 232 7 236 4 3 75 5 157 4 l151 -3 3 -232z m352 2 l0 -235 -160 0
-160 0 0 228 c0 126 3 232 7 235 3 4 75 7 160 7 l153 0 0 -235z m348 -2 l2
-233 -160 0 -160 0 0 228 c0 126 3 232 7 236 4 3 75 5 157 4 l151 -3 3 -232z
m350 0 l2 -233 -160 0 -160 0 0 235 0 236 158 -3 157 -3 3 -232z m343 2 l0
-230 -156 -3 -155 -3 0 236 0 236 155 -3 156 -3 0 -230z"/>
<path d="M6577 8333 c-2 -5 -5 -65 -6 -135 l-2 -128 91 0 c88 0 91 1 88 22 -3
19 -10 21 -58 22 -55 1 -55 1 -58 34 l-3 32 50 0 c48 0 51 2 51 25 0 23 -3 25
-50 25 -49 0 -50 1 -50 30 0 30 1 30 55 30 52 0 55 1 55 25 0 25 -1 25 -79 25
-44 0 -82 -3 -84 -7z"/>
<path d="M1845 8213 c-20 -65 -38 -126 -41 -135 -4 -14 1 -18 25 -18 25 0 31
5 41 35 10 31 15 35 46 35 31 0 37 -5 50 -35 12 -29 19 -35 44 -35 17 0 30 1
30 3 0 2 -7 23 -14 48 -8 24 -27 83 -41 132 l-26 87 -39 0 -38 0 -37 -117z
m88 20 c3 -16 9 -36 12 -45 6 -15 2 -18 -24 -18 -36 0 -35 -3 -20 55 12 49 23
51 32 8z"/>
<path d="M4000 8195 l0 -138 79 5 c92 5 125 22 148 76 23 55 12 117 -26 156
-29 29 -37 31 -116 35 l-85 3 0 -137z m147 71 c23 -20 28 -32 28 -70 0 -55
-23 -81 -77 -91 l-38 -7 0 96 0 96 29 0 c17 0 42 -10 58 -24z"/>
<path d="M8830 8195 l0 -135 30 0 c30 0 30 1 30 54 l0 55 48 3 c40 3 47 6 50
26 3 20 0 22 -47 22 l-51 0 0 35 0 35 50 0 c43 0 50 3 50 20 0 18 -7 20 -80
20 l-80 0 0 -135z"/>
<path d="M11200 8190 l0 -140 85 0 c84 0 85 0 85 25 0 24 -3 25 -54 25 -52 0
-54 1 -58 30 -3 17 -2 32 0 35 3 3 27 5 54 5 45 0 48 2 48 25 0 23 -3 25 -50
25 -49 0 -50 1 -50 30 0 29 1 30 50 30 47 0 50 2 50 25 0 25 -1 25 -80 25
l-80 0 0 -140z"/>
<path d="M13738 8318 c-76 -20 -114 -107 -83 -184 21 -54 58 -74 133 -74 91 0
92 1 92 81 l0 69 -50 0 c-46 0 -50 -2 -50 -24 0 -17 5 -23 18 -22 12 1 18 -8
20 -31 3 -31 1 -33 -27 -33 -41 0 -80 37 -88 82 -5 32 -1 41 26 69 29 29 36
31 81 27 43 -4 49 -2 54 16 3 11 4 21 2 23 -9 9 -97 10 -128 1z"/>
<path d="M15867 8323 c-4 -3 -7 -64 -7 -134 l0 -127 31 -7 c44 -10 113 3 143
26 32 25 35 73 6 104 -18 20 -19 23 -5 35 16 13 20 57 7 77 -4 6 -20 17 -35
22 -31 12 -130 15 -140 4z m117 -49 c24 -23 4 -54 -34 -54 -26 0 -30 4 -30 28
0 16 3 32 7 35 11 12 41 7 57 -9z m-3 -104 c39 -21 16 -70 -33 -70 -25 0 -28
3 -28 33 0 48 18 59 61 37z"/>
<path d="M9040 8300 c0 -18 7 -20 55 -20 31 0 55 -4 55 -10 0 -6 -17 -43 -37
-83 -68 -131 -67 -127 -32 -127 29 0 33 6 85 115 30 63 54 122 54 130 0 12
-17 15 -90 15 -83 0 -90 -1 -90 -20z"/>
<path d="M11440 8295 c0 -24 3 -25 60 -25 l60 0 -56 -105 -55 -105 33 0 c32 1
34 3 86 113 29 61 52 120 52 130 0 15 -11 17 -90 17 -89 0 -90 0 -90 -25z"/>
<path d="M16120 8295 c0 -24 3 -25 60 -25 l61 0 -56 -105 -56 -105 33 0 c32 1
34 3 86 113 29 61 52 120 52 130 0 15 -11 17 -90 17 -89 0 -90 0 -90 -25z"/>
<path d="M4285 8251 c-3 -2 -5 -46 -5 -98 l0 -93 30 0 29 0 3 73 c3 69 4 72
28 72 24 0 25 -3 28 -72 l3 -73 29 0 29 0 3 73 c3 69 4 72 28 72 24 0 25 -3
28 -72 l3 -73 29 0 30 0 0 70 c0 38 -5 81 -12 95 -15 34 -54 43 -91 22 -25
-15 -30 -15 -43 -2 -20 19 -54 19 -82 -1 -17 -12 -22 -12 -22 -2 0 13 -35 20
-45 9z"/>
<path d="M5760 6540 l0 -1380 900 0 900 0 0 1380 0 1380 -900 0 -900 0 0
-1380z m348 953 l-3 -278 -155 0 -155 0 -3 278 -2 277 160 0 160 0 -2 -277z
m360 0 l-3 -278 -160 0 -160 0 -3 278 -2 277 165 0 165 0 -2 -277z m352 203
c0 -73 0 -74 -30 -86 -46 -19 -70 -56 -70 -107 0 -59 24 -101 66 -119 l35 -15
-3 -77 -3 -77 -155 0 -155 0 -3 278 -2 277 160 0 160 0 0 -74z m355 -206 l0
-275 -160 0 -160 0 -3 76 -3 76 40 15 c102 40 95 210 -9 233 -30 7 -30 7 -30
81 l0 74 163 -2 162 -3 0 -275z m353 3 l-3 -278 -157 -3 -158 -3 0 281 0 280
160 0 160 0 -2 -277z m-1418 -367 c0 -51 -2 -54 -31 -66 -90 -38 -91 -183 -2
-225 31 -15 33 -19 33 -70 l0 -55 -160 0 -160 0 0 235 0 235 160 0 160 0 0
-54z m360 -1 c0 -49 -2 -55 -24 -61 -13 -3 -37 -19 -52 -35 -24 -25 -29 -39
-29 -78 0 -57 23 -96 70 -118 33 -16 35 -19 35 -70 l0 -53 -165 0 -165 0 0 53
c1 51 1 52 43 72 102 48 97 186 -9 230 -32 13 -34 16 -34 64 l0 51 165 0 165
0 0 -55z m350 -180 l0 -235 -160 0 -160 0 0 55 c0 49 2 55 24 61 40 10 78 58
83 107 7 59 -15 100 -67 124 -39 18 -39 19 -40 71 l0 52 160 0 160 0 0 -235z
m360 0 l0 -235 -165 0 -165 0 0 235 0 235 165 0 165 0 0 -235z m350 0 l0 -235
-160 0 -160 0 0 235 0 235 160 0 160 0 0 -235z m-1420 -505 l0 -241 -157 3
-158 3 -3 238 -2 237 160 0 160 0 0 -240z m355 0 l0 -235 -162 -3 -163 -2 0
233 c0 129 3 237 7 241 4 3 77 5 162 4 l156 -3 0 -235z m353 3 l-3 -238 -157
-3 -158 -3 0 241 0 240 160 0 160 0 -2 -237z m357 -3 l0 -235 -160 0 -160 0
-3 238 -2 237 162 -2 163 -3 0 -235z m353 3 l-3 -238 -157 -3 -158 -3 0 241 0
240 160 0 160 0 -2 -237z m-1418 -508 l0 -235 -160 0 -160 0 0 235 0 235 160
0 160 0 0 -235z m358 3 l-3 -233 -160 0 -160 0 -3 233 -2 232 165 0 165 0 -2
-232z m350 0 l-3 -233 -157 -3 -158 -3 0 236 0 235 160 0 160 0 -2 -232z m357
-3 l0 -230 -162 -3 -163 -2 0 235 0 235 163 -2 162 -3 0 -230z m355 0 l0 -235
-160 0 -160 0 0 235 0 235 160 0 160 0 0 -235z m-1422 -501 l-3 -236 -155 0
-155 0 -3 223 c-1 123 0 229 2 236 4 10 44 13 161 13 l155 0 -2 -236z m357 -2
l0 -233 -160 0 -160 0 -3 223 c-1 122 0 228 3 236 3 10 40 12 162 10 l158 -3
0 -233z m350 -2 l0 -235 -155 0 -155 0 -3 238 -2 238 157 -3 158 -3 0 -235z
m360 0 l0 -235 -160 0 -160 0 -3 225 c-1 123 0 230 3 238 3 10 40 12 162 10
l158 -3 0 -235z m350 0 l0 -235 -157 -3 -158 -3 0 241 0 241 158 -3 157 -3 0
-235z"/>
<path d="M8127 7913 c-3 -5 -5 -71 -5 -147 l-1 -139 -29 -13 c-97 -40 -97
-187 0 -228 l28 -12 3 -1105 2 -1104 900 0 900 0 1 190 c0 105 1 603 2 1108 2
898 2 917 21 917 29 0 78 54 85 94 4 22 1 48 -7 69 -15 35 -60 77 -83 77 -11
0 -14 32 -16 148 l-3 147 -897 3 c-493 1 -899 -1 -901 -5z m353 -212 c0 -52
-4 -70 -15 -75 -17 -6 -274 -5 -292 2 -9 3 -13 27 -13 73 l0 69 160 0 160 0 0
-69z m350 0 c0 -63 -2 -69 -22 -75 -30 -8 -212 -8 -260 0 l-38 7 0 68 0 69
160 0 160 0 0 -69z m360 0 l0 -70 -44 -6 c-33 -5 -266 -2 -283 4 -2 1 -3 33
-3 71 l0 70 165 0 165 0 0 -69z m348 -3 l-3 -73 -95 -3 c-52 -2 -123 0 -157 3
l-63 7 0 69 0 69 160 0 161 0 -3 -72z m350 0 l-3 -73 -155 0 -155 0 -3 73 -3
72 161 0 161 0 -3 -72z m-1410 -405 l-3 -78 -155 0 -155 0 -3 78 -3 77 161 0
161 0 -3 -77z m352 -3 l0 -81 -157 3 -158 3 -3 78 -3 77 161 0 160 0 0 -80z
m358 3 l-3 -78 -160 0 -160 0 -3 78 -3 77 166 0 166 0 -3 -77z m350 0 l-3 -78
-155 0 -155 0 -3 78 -3 77 161 0 161 0 -3 -77z m358 61 c-3 -9 -6 -45 -6 -80
l0 -65 -157 3 -158 3 -3 78 -3 77 167 0 c147 0 165 -2 160 -16z m-1416 -409
l0 -235 -160 0 -160 0 0 235 0 235 160 0 160 0 0 -235z m350 23 c0 -117 3
-223 6 -235 l6 -23 -166 0 -166 0 0 235 0 235 160 0 160 0 0 -212z m360 157
c0 -53 -1 -55 -35 -69 -95 -40 -98 -172 -5 -225 38 -21 40 -25 40 -72 l0 -49
-165 0 -165 0 0 235 0 235 165 0 165 0 0 -55z m350 -180 l0 -235 -160 0 -160
0 0 53 c0 51 1 52 38 68 42 18 72 66 72 117 0 39 -38 93 -75 105 -39 13 -41
16 -37 76 l4 51 159 0 159 0 0 -235z m350 0 l0 -235 -160 0 -160 0 0 235 0
235 160 0 160 0 0 -235z m-1410 -324 c0 -53 -2 -59 -23 -65 -12 -3 -35 -19
-51 -35 -59 -61 -38 -164 40 -197 34 -14 35 -16 32 -67 l-3 -52 -157 -3 -158
-3 0 241 0 240 160 0 160 0 0 -59z m354 -11 c0 -36 -1 -143 -2 -237 l-2 -173
-160 0 -160 0 0 54 c0 50 2 54 29 66 48 20 73 54 78 107 5 61 -21 106 -71 124
-36 13 -36 14 -36 71 l0 58 163 -2 162 -3 -1 -65z m354 -167 l-3 -238 -160 0
-160 0 -3 238 -2 237 165 0 165 0 -2 -237z m352 -3 l0 -240 -160 0 -160 0 0
240 0 240 160 0 160 0 0 -240z m350 0 l0 -241 -157 3 -158 3 -3 238 -2 237
160 0 160 0 0 -240z m-1060 -506 l0 -234 -160 0 -160 0 0 234 c0 209 2 235 16
238 9 2 81 2 160 0 l144 -3 0 -235z m-350 1 l0 -235 -160 0 -160 0 0 235 0
235 160 0 160 0 0 -235z m710 0 l0 -235 -165 0 -165 0 0 235 0 235 165 0 165
0 0 -235z m350 0 l0 -235 -160 0 -160 0 0 235 0 235 160 0 160 0 0 -235z m352
10 c2 -124 2 -230 0 -235 -2 -6 -67 -10 -163 -10 l-159 0 0 235 0 235 160 0
159 0 3 -225z m-1414 -509 c2 -175 -1 -231 -10 -237 -7 -4 -79 -8 -160 -8
l-148 0 0 240 0 240 158 -3 157 -3 3 -229z m350 -3 l-3 -238 -155 0 -155 0 -3
225 c-1 123 0 230 2 237 4 10 44 13 161 13 l155 0 -2 -237z m357 -3 l0 -235
-160 0 -160 0 -3 225 c-1 123 0 230 3 238 3 10 40 12 162 10 l158 -3 0 -235z
m353 3 l-3 -238 -155 0 -155 0 -3 238 -2 237 160 0 160 0 -2 -237z m354 175
c1 -35 3 -88 4 -118 1 -30 0 -110 -3 -178 l-5 -123 -157 3 -156 3 -3 225 c-1
123 0 230 2 237 4 10 44 13 161 13 l155 0 2 -62z"/>
<path d="M1030 6534 l0 -1374 895 0 895 0 0 1375 0 1376 -895 -1 -895 -1 0
-1375z m350 951 l0 -275 -160 0 -160 0 0 275 0 275 160 0 160 0 0 -275z m350
0 l0 -275 -160 0 -160 0 0 275 0 275 160 0 160 0 0 -275z m350 0 l0 -275 -160
0 -160 0 0 275 0 275 160 0 160 0 0 -275z m360 0 l0 -275 -165 0 -165 0 0 275
0 275 165 0 165 0 0 -275z m350 0 l0 -275 -37 -2 c-102 -5 -144 -5 -210 -1
l-73 5 0 274 0 274 160 0 160 0 0 -275z m-1412 -547 l2 -238 -160 0 -160 0 0
240 0 241 158 -3 157 -3 3 -237z m352 182 c0 -45 -4 -60 -14 -60 -22 0 -72
-46 -86 -80 -7 -17 -10 -44 -6 -63 7 -39 60 -97 87 -97 17 0 19 -8 19 -60 l0
-60 -160 0 -160 0 0 233 c0 129 3 237 7 240 3 4 75 7 160 7 l153 0 0 -60z
m350 2 c0 -56 -1 -59 -32 -73 -45 -20 -69 -58 -70 -108 0 -51 24 -89 70 -111
39 -19 44 -32 36 -87 l-6 -43 -159 0 -159 0 0 55 c0 53 1 55 33 69 51 21 77
60 77 116 0 56 -25 93 -76 115 -32 13 -34 17 -34 63 0 27 3 52 7 55 3 4 75 7
160 7 l153 0 0 -58z m358 1 c3 -52 3 -52 -37 -73 -51 -25 -75 -69 -68 -122 7
-52 31 -87 73 -104 34 -14 35 -16 32 -67 l-3 -52 -162 -3 -163 -2 0 54 c0 53
1 55 37 73 104 51 104 175 0 226 -35 18 -37 21 -37 66 0 26 3 51 7 55 4 3 77
5 162 4 l156 -3 3 -52z m347 -183 l0 -235 -157 -3 -158 -3 0 59 c0 56 1 58 32
67 97 30 101 184 6 224 -38 16 -38 16 -38 74 l0 58 158 -3 157 -3 0 -235z
m-1405 -505 l0 -235 -160 0 -160 0 0 235 0 235 160 0 160 0 0 -235z m350 0 l0
-235 -160 0 -160 0 0 235 0 235 160 0 160 0 0 -235z m356 189 c-3 -26 -6 -132
-6 -235 l0 -189 -160 0 -160 0 0 235 0 235 166 0 167 0 -7 -46z m354 -189 l0
-235 -162 2 -163 3 -3 220 c-1 121 0 225 2 232 4 10 45 13 166 13 l160 0 0
-235z m350 0 l0 -235 -160 0 -160 0 0 235 0 235 160 0 160 0 0 -235z m-1410
-500 l0 -234 -157 -3 c-87 -2 -160 -2 -163 -1 -3 0 -4 107 -2 237 l3 236 159
0 160 0 0 -235z m350 0 l0 -235 -160 0 -160 0 0 235 0 235 160 0 160 0 0 -235z
m350 0 l0 -235 -160 0 -160 0 0 235 0 235 160 0 160 0 0 -235z m358 -2 l2
-233 -165 0 -165 0 0 228 c0 126 3 232 7 236 4 3 77 5 162 4 l156 -3 3 -232z
m352 2 l0 -235 -160 0 -160 0 0 235 0 235 160 0 160 0 0 -235z m-1415 -505 l0
-235 -157 -3 -158 -3 0 241 0 240 158 -3 157 -2 0 -235z m353 -3 l2 -238 -157
3 -158 3 -3 225 c-1 123 0 230 3 238 3 10 39 12 157 10 l153 -3 3 -238z m352
3 l0 -241 -157 3 -158 3 -3 225 c-1 123 0 230 2 236 3 7 56 12 160 13 l156 2
0 -241z m355 0 l0 -235 -160 0 -160 0 -3 225 c-1 123 0 230 2 237 4 9 47 11
163 10 l158 -2 0 -235z m350 0 l0 -235 -157 -3 -158 -3 0 241 0 241 158 -3
157 -3 0 -235z"/>
<path d="M3340 6535 l0 -1375 895 0 895 0 0 1100 0 1100 33 14 c102 42 103
182 3 230 l-36 17 0 144 0 145 -895 0 -895 0 0 -1375z m350 955 l0 -280 -160
0 -160 0 0 280 0 280 160 0 160 0 0 -280z m350 0 l0 -280 -160 0 -160 0 0 280
0 280 160 0 160 0 0 -280z m355 0 l0 -275 -160 0 -160 0 -3 265 c-1 146 0 270
3 278 3 10 41 12 162 10 l158 -3 0 -275z m355 0 l0 -280 -160 0 -160 0 0 280
0 280 160 0 160 0 0 -280z m350 202 l0 -78 -34 -12 c-95 -35 -94 -176 2 -222
37 -18 38 -22 34 -106 l-4 -64 -159 0 -159 0 0 280 0 280 160 0 160 0 0 -78z
m-1412 -749 l-3 -238 -157 -3 -158 -3 0 241 0 240 160 0 160 0 -2 -237z m352
-3 l0 -241 -157 3 -158 3 -3 238 -2 237 160 0 160 0 0 -240z m358 183 c3 -51
2 -53 -31 -66 -49 -21 -77 -61 -77 -111 0 -53 31 -103 76 -122 34 -14 35 -16
32 -67 l-3 -52 -160 0 -160 0 -3 225 c-1 123 0 230 3 238 3 10 40 12 162 10
l158 -3 3 -52z m350 -180 l-3 -238 -157 -3 -158 -3 0 61 c0 44 4 60 14 60 23
0 68 42 83 77 8 21 11 47 7 69 -7 40 -56 94 -85 94 -17 0 -19 7 -19 60 l0 60
160 0 160 0 -2 -237z m352 -3 l0 -241 -157 3 -158 3 -3 238 -2 237 160 0 160
0 0 -240z m-1412 -502 l2 -238 -160 0 -160 0 0 240 0 241 158 -3 157 -3 3
-237z m352 2 l0 -240 -160 0 -160 0 0 233 c0 129 3 237 7 240 3 4 75 7 160 7
l153 0 0 -240z m355 0 l0 -235 -160 0 -160 0 -3 225 c-1 123 0 230 3 238 3 10
40 12 162 10 l158 -3 0 -235z m353 180 l3 -55 -39 -16 c-42 -17 -72 -66 -72
-116 0 -41 35 -92 75 -109 34 -14 35 -16 35 -69 l0 -55 -160 0 -159 0 -3 236
c-2 130 -1 237 1 239 2 3 74 3 160 2 l156 -2 3 -55z m336 54 c14 -5 16 -36 16
-240 l0 -234 -160 0 -160 0 0 55 c0 53 1 55 35 69 40 17 75 68 75 109 0 48
-29 96 -71 118 -37 18 -39 22 -39 68 0 26 3 51 7 54 8 9 276 9 297 1z m-1394
-739 l0 -235 -102 -2 c-57 0 -129 -2 -160 -4 l-58 -2 0 239 0 239 160 0 160 0
0 -235z m350 0 l0 -235 -160 0 -160 0 0 235 0 235 160 0 160 0 0 -235z m360 0
l0 -235 -165 0 -165 0 0 228 c0 126 3 232 7 235 3 4 78 7 165 7 l158 0 0 -235z
m350 0 l0 -235 -160 0 -159 0 -3 231 c-2 127 -1 233 1 235 2 2 76 4 163 4
l158 0 0 -235z m350 0 l0 -235 -160 0 -160 0 0 235 0 235 160 0 160 0 0 -235z
m-1412 -502 l-3 -238 -155 0 -155 0 -3 238 -2 237 160 0 160 0 -2 -237z m352
3 l0 -235 -152 -3 c-84 -2 -156 -2 -160 0 -10 4 -11 456 -1 465 3 4 75 7 160
7 l153 0 0 -234z m355 -6 l0 -235 -160 0 -160 0 -3 225 c-1 123 0 230 3 238 3
10 40 12 162 10 l158 -3 0 -235z m350 0 l0 -235 -157 -3 -158 -3 0 241 0 241
158 -3 157 -3 0 -235z m353 5 l-3 -235 -155 -2 -155 -2 -3 224 c-1 124 0 230
2 237 4 10 44 13 161 13 l155 0 -2 -235z"/>
<path d="M10500 6535 l0 -1375 895 0 895 0 0 1375 0 1375 -895 0 -895 0 0
-1375z m350 950 l0 -275 -160 0 -160 0 0 275 0 275 160 0 160 0 0 -275z m350
0 l0 -275 -160 0 -160 0 0 275 0 275 160 0 160 0 0 -275z m360 205 c0 -69 0
-70 -32 -83 -62 -27 -93 -89 -77 -152 10 -35 54 -81 84 -87 18 -3 20 -12 23
-81 l3 -77 -165 0 -165 0 0 275 -1 275 165 0 165 0 0 -70z m350 -205 l0 -275
-57 -1 c-32 0 -104 -2 -160 -5 l-103 -5 0 80 0 80 34 16 c96 46 94 179 -2 225
-31 15 -32 16 -32 88 l0 72 160 0 160 0 0 -275z m350 0 l0 -275 -160 0 -160 0
0 275 0 275 160 0 160 0 0 -275z m-1412 -365 l3 -56 -36 -13 c-98 -35 -98
-186 0 -227 34 -14 35 -16 35 -69 l0 -55 -160 0 -160 0 0 240 0 241 158 -3
157 -3 3 -55z m350 -183 l2 -238 -157 3 -158 3 -3 52 c-3 51 -2 53 32 67 65
27 95 111 61 176 -8 15 -32 36 -55 47 -38 18 -39 19 -40 69 0 28 3 54 7 58 4
3 75 5 157 4 l151 -3 3 -238z m360 6 l-3 -238 -160 0 -160 0 -3 205 c-2 113 0
220 3 238 l6 32 160 0 159 0 -2 -237z m350 -5 l2 -238 -160 0 -160 0 0 240 0
241 158 -3 157 -3 3 -237z m352 2 l0 -240 -160 0 -160 0 0 233 c0 129 3 237 7
240 3 4 75 7 160 7 l153 0 0 -240z m-1410 -505 l0 -235 -160 0 -160 0 0 235 0
235 160 0 160 0 0 -235z m350 0 l0 -235 -160 0 -160 0 0 235 0 235 160 0 160
0 0 -235z m360 0 l0 -235 -162 2 c-90 2 -162 6 -160 11 1 4 2 108 2 232 l0
225 160 0 160 0 0 -235z m350 0 l0 -235 -160 0 -160 0 0 235 0 235 160 0 160
0 0 -235z m350 0 l0 -235 -160 0 -160 0 0 235 0 235 160 0 160 0 0 -235z
m-1410 -500 l0 -235 -160 0 -160 0 0 235 0 235 160 0 160 0 0 -235z m350 0 l0
-235 -160 0 -160 0 0 235 0 235 160 0 160 0 0 -235z m358 -2 l2 -233 -165 0
-165 0 0 228 c0 126 3 232 7 236 4 3 77 5 162 4 l156 -3 3 -232z m352 2 l0
-235 -160 0 -160 0 0 235 0 235 160 0 160 0 0 -235z m350 0 l0 -235 -160 0
-160 0 0 235 0 235 160 0 160 0 0 -235z m-1415 -505 l0 -235 -157 -3 -158 -3
0 234 c0 129 3 237 7 241 4 3 75 5 157 4 l151 -3 0 -235z m353 -3 l2 -238
-157 3 -158 3 -3 232 c-2 214 -1 232 15 236 10 2 81 3 158 3 l140 -1 3 -238z
m357 3 l0 -235 -160 0 -160 0 -3 225 c-1 123 0 230 2 237 4 9 47 11 163 10
l158 -2 0 -235z m350 0 l0 -235 -157 -3 -158 -3 0 234 c0 129 3 237 7 241 4 3
75 5 157 4 l151 -3 0 -235z m353 -2 l2 -238 -160 0 -160 0 0 233 c0 129 3 237
7 241 4 3 75 5 157 4 l151 -3 3 -237z"/>
<path d="M12870 7240 l0 -670 -40 -20 c-95 -49 -94 -185 2 -227 l38 -17 0
-570 -1 -571 896 -3 895 -2 0 574 0 574 29 12 c48 20 73 54 79 108 4 44 1 52
-28 85 -18 21 -43 40 -56 43 l-24 6 0 674 0 674 -895 0 -895 0 0 -670z m1758
248 l2 -278 -160 0 -160 0 0 274 0 275 38 3 c20 2 91 4 157 3 l120 0 3 -277z
m-1408 -3 l0 -275 -160 0 -160 0 0 275 0 275 160 0 160 0 0 -275z m350 0 l0
-275 -160 0 -160 0 0 275 0 275 160 0 160 0 0 -275z m352 0 l3 -275 -162 0
-163 0 0 275 0 275 160 0 159 0 3 -275z m358 0 l0 -275 -162 0 -163 0 3 275 3
275 159 0 160 0 0 -275z m-1062 -365 l3 -55 -41 -17 c-43 -18 -70 -62 -70
-115 0 -41 36 -92 76 -109 34 -14 35 -16 32 -67 l-3 -52 -157 -3 -158 -3 0
241 0 241 158 -3 157 -3 3 -55z m350 -182 l2 -238 -160 0 -160 0 0 55 c0 53 1
55 34 69 96 40 98 185 4 225 -37 16 -38 17 -38 67 0 28 3 54 7 58 4 3 75 5
157 4 l151 -3 3 -237z m352 225 c1 -10 1 -117 1 -238 l0 -220 -158 0 -158 0
-3 225 c-1 123 0 230 2 237 4 10 44 13 161 13 141 0 155 -2 155 -17z m355
-223 l0 -235 -157 -3 -158 -3 0 241 0 241 158 -3 157 -3 0 -235z m353 -2 l2
-238 -160 0 -160 0 0 240 0 241 158 -3 157 -3 3 -237z m-1408 -503 l0 -235
-159 0 c-99 0 -161 4 -163 10 -2 6 -2 30 0 54 3 38 8 46 33 56 43 18 72 65 72
116 0 52 -23 89 -68 111 -33 16 -35 19 -35 70 l0 53 160 0 160 0 0 -235z m350
0 l0 -235 -160 0 -160 0 0 235 0 235 160 0 160 0 0 -235z m358 3 l-3 -233
-162 -3 -163 -2 0 235 0 235 165 0 165 0 -2 -232z m352 -3 l0 -235 -160 0
-160 0 0 235 0 235 160 0 160 0 0 -235z m350 181 c0 -48 -3 -54 -23 -60 -12
-3 -35 -19 -51 -35 -59 -61 -39 -161 39 -198 34 -16 35 -19 35 -70 l0 -53
-160 0 -160 0 0 235 0 235 160 0 160 0 0 -54z m-1410 -681 l0 -235 -160 0
-160 0 -1 168 c0 92 -3 191 -5 221 -3 29 -3 60 0 67 4 11 39 14 166 14 l160 0
0 -235z m350 0 l0 -235 -160 0 -160 0 0 235 0 235 160 0 160 0 0 -235z m353
223 c-2 -5 -3 -109 -3 -233 l0 -225 -160 0 -160 0 0 235 0 235 163 -2 c89 -2
161 -6 160 -10z m355 -225 l2 -233 -160 0 -160 0 0 235 0 236 158 -3 157 -3 3
-232z m352 2 l0 -235 -160 0 -160 0 0 235 0 235 160 0 160 0 0 -235z m-1415
-505 l0 -235 -157 -3 -158 -3 0 240 0 240 158 -2 157 -2 0 -235z m350 0 l0
-235 -157 -3 -158 -3 0 234 c0 129 3 237 7 241 4 3 75 5 157 4 l151 -3 0 -235z
m355 10 c0 -126 0 -233 0 -237 0 -5 -71 -8 -157 -8 l-158 0 -3 225 c-1 123 0
230 2 237 4 10 44 13 161 13 l155 0 0 -230z m355 -10 l0 -235 -157 -3 -158 -3
0 241 0 241 158 -3 157 -3 0 -235z m350 0 l0 -235 -157 -3 -158 -3 0 241 0
241 158 -3 157 -3 0 -235z"/>
<path d="M15180 6535 l0 -1375 895 0 895 0 0 825 0 825 33 14 c51 21 77 60 77
116 0 56 -26 95 -77 116 l-33 14 0 419 0 419 -895 2 -895 1 0 -1376z m350 950
l0 -275 -160 0 -160 0 0 275 0 275 160 0 160 0 0 -275z m350 200 c0 -58 -3
-75 -14 -75 -26 0 -75 -51 -87 -89 -16 -54 14 -121 65 -145 l36 -17 0 -74 0
-75 -160 0 -160 0 0 275 0 275 160 0 160 0 0 -75z m360 -200 l0 -275 -162 0
-163 0 2 77 1 76 34 14 c94 38 94 180 0 222 -32 14 -32 15 -32 88 l0 73 160 0
160 0 0 -275z m350 0 l0 -275 -160 0 -160 0 0 275 0 275 160 0 160 0 0 -275z
m350 0 l0 -275 -160 0 -160 0 0 275 0 275 160 0 160 0 0 -275z m-1412 -365 l3
-55 -41 -17 c-43 -18 -70 -62 -70 -115 0 -41 35 -92 75 -109 34 -14 35 -16 35
-69 l0 -55 -160 0 -160 0 0 233 c0 129 3 237 7 241 4 3 75 5 157 4 l151 -3 3
-55z m353 -72 c2 -73 2 -181 0 -241 l-3 -107 -157 2 -156 3 -3 52 c-3 51 -2
53 32 67 98 41 99 192 2 227 -35 13 -36 15 -36 64 0 29 3 55 7 58 3 4 75 7
159 7 l152 0 3 -132z m357 74 c3 -52 2 -53 -32 -67 -51 -22 -76 -59 -76 -115
0 -56 26 -95 77 -116 32 -14 33 -16 33 -69 l0 -55 -162 2 -161 3 -2 215 c0
118 1 225 3 238 4 22 5 22 161 20 l156 -3 3 -53z m350 -184 l2 -238 -160 0
-160 0 0 58 c0 57 0 58 35 71 38 13 75 70 75 114 0 34 -40 90 -77 107 -31 14
-33 18 -33 73 l0 58 158 -3 157 -3 3 -237z m352 182 c0 -45 -4 -60 -14 -60
-25 0 -74 -49 -86 -85 -6 -19 -9 -49 -5 -65 8 -36 59 -90 86 -90 17 0 19 -7
19 -60 l0 -60 -160 0 -160 0 0 233 c0 129 3 237 7 240 3 4 75 7 160 7 l153 0
0 -60z m-1410 -685 l0 -235 -160 0 -160 0 0 235 0 235 160 0 160 0 0 -235z
m350 0 l0 -235 -160 0 -160 0 0 235 0 235 160 0 160 0 0 -235z m360 0 l0 -235
-160 0 -160 0 0 235 0 235 160 0 160 0 0 -235z m350 0 l0 -235 -160 0 -160 0
0 235 0 235 160 0 160 0 0 -235z m350 0 l0 -235 -160 0 -160 0 0 235 0 235
160 0 160 0 0 -235z m-1410 -499 l0 -235 -137 -3 c-76 -2 -148 -2 -160 0 l-23
3 0 235 0 234 160 0 160 0 0 -234z m350 -1 l0 -235 -160 0 -160 0 0 235 0 235
160 0 160 0 0 -235z m360 0 l0 -235 -160 0 -160 0 0 235 0 235 160 0 160 0 0
-235z m350 0 l0 -235 -160 0 -160 0 0 235 0 235 160 0 160 0 0 -235z m350 1
c0 -219 -1 -234 -19 -239 -10 -2 -82 -2 -160 1 l-141 5 0 233 0 234 160 0 160
0 0 -234z m-1415 -506 l0 -235 -155 0 -155 0 -3 225 c-1 123 0 230 3 238 3 10
39 12 157 10 l153 -3 0 -235z m353 -3 l2 -238 -157 3 -158 3 -3 225 c-1 123 0
230 2 237 4 8 47 11 158 10 l153 -2 3 -238z m357 3 l0 -235 -157 0 c-87 0
-158 3 -158 8 0 4 0 111 0 238 l0 230 158 -3 157 -3 0 -235z m350 0 l0 -235
-157 -3 -158 -3 0 234 c0 129 3 237 7 241 4 3 75 5 157 4 l151 -3 0 -235z
m355 -1 l0 -240 -157 3 -158 3 -3 225 c-1 123 0 230 3 238 3 10 41 12 160 11
l155 -1 0 -239z"/>
<path d="M4073 4285 c-90 -39 -99 -196 -13 -240 29 -15 124 -21 154 -9 12 5
16 21 16 75 l0 69 -50 0 c-43 0 -50 -3 -50 -19 0 -13 8 -21 23 -23 17 -2 22
-10 22 -33 0 -42 -40 -46 -84 -10 -41 35 -44 93 -6 131 22 22 33 25 78 23 44
-3 52 0 55 15 2 10 -2 22 -10 27 -20 13 -99 10 -135 -6z"/>
<path d="M6570 4165 l0 -135 30 0 c30 0 30 1 30 55 l0 55 50 0 c43 0 50 3 50
19 0 17 -8 20 -47 23 -46 3 -48 4 -51 36 l-3 32 55 0 c53 0 56 1 56 25 0 25
-1 25 -85 25 l-85 0 0 -135z"/>
<path d="M8765 4284 c-42 -21 -63 -52 -71 -101 -8 -58 11 -110 50 -134 37 -23
156 -28 156 -6 0 24 -15 32 -59 33 -35 0 -48 6 -68 29 -21 23 -24 36 -20 68 8
57 36 81 94 82 42 0 48 3 51 23 3 20 0 22 -50 22 -29 0 -66 -7 -83 -16z"/>
<path d="M11077 4293 c-4 -3 -7 -64 -7 -135 l0 -128 65 0 c35 0 75 5 88 11 49
22 58 97 15 120 -20 11 -20 11 3 35 19 20 21 29 13 51 -5 15 -21 33 -34 40
-26 13 -132 18 -143 6z m109 -47 c15 -12 17 -18 8 -33 -15 -24 -67 -24 -72 0
-9 44 25 61 64 33z m4 -114 c14 -11 19 -23 15 -35 -8 -19 -47 -32 -70 -23 -15
5 -21 57 -8 69 12 12 40 7 63 -11z"/>
<path d="M13510 4165 l0 -135 85 0 c84 0 85 0 85 25 0 24 -3 25 -55 25 l-55 0
0 35 0 35 50 0 c43 0 50 3 50 20 0 17 -7 20 -51 20 l-50 0 3 33 c3 31 4 32 52
33 43 1 50 3 51 22 2 21 -2 22 -82 22 l-83 0 0 -135z"/>
<path d="M1735 4173 c-20 -65 -39 -126 -41 -135 -4 -14 1 -18 25 -18 27 0 31
4 37 35 6 36 7 36 52 33 42 -3 46 -5 54 -35 7 -28 13 -33 38 -33 17 0 30 3 30
7 0 4 -14 52 -31 108 -17 55 -34 111 -38 125 -6 21 -15 26 -49 28 l-41 3 -36
-118z m88 38 c3 -16 9 -40 13 -55 6 -24 4 -26 -26 -26 -30 0 -32 2 -26 26 4
15 10 39 13 55 7 37 19 37 26 0z"/>
<path d="M1970 4265 c0 -24 3 -25 60 -25 l60 0 -51 -101 c-27 -56 -49 -102
-47 -104 2 -2 14 -5 27 -7 22 -3 30 8 77 102 29 58 53 117 53 133 l1 27 -90 0
c-89 0 -90 0 -90 -25z"/>
<path d="M15842 4158 l3 -133 55 -3 c114 -6 180 44 180 135 0 96 -46 133 -165
133 l-76 0 3 -132z m161 61 c44 -54 5 -149 -63 -152 l-35 -2 -3 79 c-2 44 0
86 3 94 8 21 75 8 98 -19z"/>
<path d="M16120 4265 c0 -24 3 -25 60 -25 l60 0 -50 -100 c-27 -55 -50 -102
-50 -105 0 -3 13 -5 28 -5 26 0 33 8 80 108 29 59 52 117 52 130 0 21 -3 22
-90 22 -89 0 -90 0 -90 -25z"/>
<path d="M4304 4222 c-19 -3 -21 -9 -20 -97 l1 -95 28 0 c27 0 27 1 27 64 0
67 15 94 45 82 11 -4 15 -22 15 -76 l0 -70 30 0 29 0 3 73 c3 69 4 72 28 72
24 0 25 -3 28 -72 l3 -73 29 0 30 0 0 80 c0 67 -3 83 -20 100 -24 24 -57 26
-88 4 -20 -14 -24 -14 -38 0 -20 20 -53 20 -81 1 -16 -12 -22 -12 -25 -3 -2 7
-12 12 -24 10z"/>
<path d="M9034 4214 c-19 -10 -30 -12 -32 -5 -2 6 -14 11 -26 11 -21 0 -22 -3
-19 -97 1 -54 5 -97 8 -95 3 1 14 2 25 2 18 0 20 7 20 64 0 67 15 94 45 82 11
-4 15 -22 15 -75 l0 -69 30 -4 30 -5 0 68 c0 70 14 97 45 85 11 -4 15 -22 15
-75 l0 -69 30 -4 30 -5 0 77 c0 90 -15 120 -61 120 -17 0 -39 -5 -50 -11 -13
-6 -25 -7 -32 -1 -24 18 -45 20 -73 6z"/>
<path d="M11382 4214 c-12 -8 -22 -10 -22 -5 0 6 -11 11 -25 11 -25 0 -25 0
-25 -95 l0 -95 30 0 29 0 3 72 c3 62 6 73 22 76 27 6 36 -15 36 -85 l0 -63 30
0 29 0 3 72 c3 62 6 73 22 76 27 6 36 -15 36 -85 l0 -63 30 0 30 0 0 64 c0 80
-12 113 -46 128 -22 10 -31 9 -56 -5 -28 -16 -32 -16 -48 -2 -21 19 -50 19
-78 -1z"/>
<path d="M13720 4130 l0 -100 30 0 30 0 0 70 c0 57 3 71 18 79 30 16 42 -7 42
-81 l0 -68 30 0 30 0 0 70 c0 57 3 71 18 79 30 16 42 -7 42 -81 l0 -68 30 0
30 0 0 78 c0 93 -15 122 -62 122 -17 0 -39 -7 -48 -15 -15 -14 -18 -14 -30 0
-15 18 -71 20 -89 3 -11 -10 -14 -10 -18 0 -3 6 -16 12 -29 12 -24 0 -24 -1
-24 -100z"/>
<path d="M3390 3206 l0 -674 -34 -20 c-47 -28 -71 -68 -70 -117 1 -51 25 -88
70 -110 l34 -16 0 -569 0 -570 900 0 900 0 0 570 0 570 35 14 c40 17 75 68 75
109 0 50 -30 99 -72 116 l-38 16 0 678 0 677 -900 0 -900 0 0 -674z m358 247
l-3 -278 -160 0 -160 0 -3 278 -2 277 165 0 165 0 -2 -277z m350 0 l-3 -278
-157 -3 -158 -3 0 281 0 280 160 0 160 0 -2 -277z m352 -3 l0 -280 -160 0
-160 0 0 280 0 280 160 0 160 0 0 -280z m350 0 l0 -281 -157 3 -158 3 -3 278
-2 277 160 0 160 0 0 -280z m358 3 l-3 -278 -160 0 -160 0 -3 278 -2 277 165
0 165 0 -2 -277z m-1410 -551 l2 -232 -162 2 -163 3 -3 220 c-1 121 0 225 3
233 3 10 40 12 162 10 l158 -3 3 -233z m352 3 l0 -235 -160 0 -160 0 0 235 0
235 160 0 160 0 0 -235z m350 0 l0 -235 -160 0 -160 0 0 235 0 235 160 0 160
0 0 -235z m350 0 l0 -235 -160 0 -160 0 0 235 0 235 160 0 160 0 0 -235z m358
-3 l2 -232 -162 2 -163 3 -3 220 c-1 121 0 225 3 233 3 10 40 12 162 10 l158
-3 3 -233z m-1410 -319 l3 -53 -165 0 -166 0 0 48 c0 27 3 52 7 56 4 3 77 5
162 4 l156 -3 3 -52z m350 2 c-2 -30 -6 -55 -10 -55 -5 0 -75 0 -158 0 l-150
0 0 55 0 55 160 0 161 0 -3 -55z m352 0 l0 -55 -160 0 -160 0 0 55 0 55 160 0
160 0 0 -55z m350 0 l0 -55 -130 -1 c-71 -1 -139 -1 -150 -1 -11 0 -24 0 -30
1 -5 1 -10 26 -10 56 l0 55 160 0 160 0 0 -55z m358 -2 l3 -52 -153 -3 c-84
-2 -159 -1 -165 1 -14 3 -19 92 -6 105 4 3 77 5 162 4 l156 -3 3 -52z m-1410
-365 l3 -48 -155 0 c-86 0 -159 -1 -163 -2 -5 -2 -9 21 -11 50 l-3 53 163 -3
163 -3 3 -47z m350 2 c-2 -28 -6 -50 -10 -50 -5 0 -75 0 -158 0 l-150 0 0 50
0 50 161 0 160 0 -3 -50z m352 1 l0 -50 -42 -6 c-24 -3 -74 -4 -113 -1 -38 2
-91 4 -117 5 l-48 1 0 50 0 50 160 0 160 0 0 -49z m350 -1 l0 -50 -160 0 -160
0 0 50 0 50 160 0 160 0 0 -50z m360 0 l0 -50 -165 0 -165 0 0 50 0 50 165 0
165 0 0 -50z m-1415 -320 l0 -235 -160 0 -160 0 -3 225 c-1 123 0 230 3 238 3
10 40 12 162 10 l158 -3 0 -235z m355 0 l0 -240 -160 0 -160 0 0 240 0 240
160 0 160 0 0 -240z m350 0 l0 -240 -160 0 -160 0 0 240 0 240 160 0 160 0 0
-240z m350 0 l0 -240 -160 0 -160 0 0 233 c0 129 3 237 7 240 3 4 75 7 160 7
l153 0 0 -240z m355 0 l0 -235 -160 0 -160 0 -3 225 c-1 123 0 230 3 238 3 10
40 12 162 10 l158 -3 0 -235z m-1405 -324 c0 -52 -1 -55 -29 -61 -46 -10 -74
-47 -79 -108 -4 -46 -1 -57 22 -84 14 -17 39 -36 56 -43 28 -12 30 -16 30 -66
l0 -54 -162 2 -163 3 -3 220 c-1 121 0 225 2 232 4 10 45 13 166 13 l160 0 0
-54z m350 1 c0 -52 -1 -53 -36 -66 -97 -35 -96 -186 1 -227 34 -14 35 -16 35
-69 l0 -55 -160 0 -160 0 0 55 c0 51 2 55 33 70 97 47 97 179 -1 225 -29 14
-32 18 -32 68 l0 52 160 0 160 0 0 -53z m350 -182 l0 -235 -160 0 -160 0 0 55
c0 52 1 55 33 68 47 20 69 50 74 101 7 57 -23 110 -73 128 -33 12 -34 14 -34
65 l0 53 160 0 160 0 0 -235z m350 0 l0 -235 -160 0 -160 0 0 235 0 235 160 0
160 0 0 -235z m358 -3 l2 -232 -162 2 -163 3 -3 220 c-1 121 0 225 3 233 3 10
40 12 162 10 l158 -3 3 -233z"/>
<path d="M5760 3736 l0 -145 -41 -23 c-23 -12 -47 -35 -55 -50 -32 -63 -3
-147 61 -174 l35 -14 0 -1100 0 -1100 900 0 900 0 0 1100 0 1100 35 14 c95 40
98 180 4 223 l-38 18 -1 148 0 147 -900 0 -900 0 0 -144z m350 -69 l0 -74
-151 -6 c-83 -4 -155 -4 -160 -1 -5 3 -9 39 -9 80 l0 74 160 0 160 0 0 -73z
m358 -4 l3 -73 -156 0 c-85 0 -158 -1 -162 -2 -9 -3 -17 118 -9 139 5 11 36
13 163 11 l158 -3 3 -72z m350 0 l-3 -78 -157 -3 -158 -4 0 81 0 81 160 0 161
0 -3 -77z m355 -3 l1 -75 -160 0 -159 0 -3 78 -3 77 161 -2 162 -3 1 -75z
m357 5 l0 -74 -160 -3 -160 -3 0 78 0 77 160 0 160 0 0 -75z m-1420 -410 l0
-75 -160 0 -160 0 0 75 0 75 160 0 160 0 0 -75z m360 0 l0 -75 -165 0 -165 0
0 75 0 75 165 0 165 0 0 -75z m350 0 l0 -75 -160 0 -160 0 0 75 0 75 160 0
160 0 0 -75z m350 0 l0 -75 -160 0 -160 0 0 75 0 75 160 0 160 0 0 -75z m360
0 l0 -75 -160 0 -160 0 0 75 0 75 160 0 160 0 0 -75z m-1420 -338 c0 -129 -2
-236 -4 -238 -2 -2 -74 -3 -160 -1 l-156 3 0 228 c0 125 3 231 7 234 3 4 75 7
160 7 l153 0 0 -233z m358 -4 c1 -128 -1 -233 -5 -234 -5 0 -78 -1 -163 -1
l-155 -2 -3 224 c-1 124 0 230 3 238 3 10 40 12 162 10 l158 -3 3 -232z m350
177 l2 -55 -39 -18 c-94 -43 -91 -183 5 -223 34 -14 35 -16 32 -66 l-3 -51
-155 0 -155 -1 -3 237 -2 238 157 -3 158 -3 3 -55z m355 -180 l2 -235 -160 3
-160 2 -3 49 c-3 45 -1 49 27 60 48 21 73 55 78 108 5 61 -21 106 -71 124 -36
13 -36 14 -36 71 l0 58 160 -2 160 -3 3 -235z m355 4 l2 -232 -157 -4 c-87 -3
-162 -2 -166 2 -4 4 -5 111 -1 239 l7 231 156 -2 156 -3 3 -231z m-352 -321
c-3 -25 -6 -131 -6 -234 l0 -189 -160 0 -160 0 0 235 0 234 89 3 c49 2 124 1
167 0 l76 -4 -6 -45z m-1066 -8 c0 -52 -1 -55 -33 -69 -96 -40 -95 -181 1
-226 29 -14 32 -18 32 -67 l0 -53 -160 0 -160 0 0 235 0 235 160 0 160 0 0
-55z m360 0 c0 -50 -2 -55 -25 -61 -14 -3 -38 -22 -55 -40 -55 -63 -32 -168
44 -195 35 -13 36 -14 36 -66 l0 -53 -165 0 -165 0 0 51 c0 48 2 51 34 64 50
21 76 59 76 112 0 58 -25 99 -72 120 -37 16 -38 18 -38 70 l0 53 165 0 165 0
0 -55z m350 -180 l0 -235 -160 0 -160 0 0 55 c0 44 3 55 16 55 27 0 82 63 89
103 10 50 -19 106 -67 132 -36 19 -38 22 -38 73 l0 52 160 0 160 0 0 -235z
m710 0 l0 -235 -160 0 -159 0 -3 231 c-2 127 -1 233 1 235 2 2 76 4 163 4
l158 0 0 -235z m-1420 -505 l0 -240 -160 0 -160 0 0 233 c0 129 3 237 7 240 3
4 75 7 160 7 l153 0 0 -240z m355 0 l0 -235 -160 0 -160 0 -3 225 c-1 123 0
230 3 238 3 10 40 12 162 10 l158 -3 0 -235z m350 0 l0 -235 -156 -3 -156 -2
-6 232 c-3 128 -3 236 0 240 2 5 75 7 161 6 l157 -3 0 -235z m358 228 c-2 -5
-3 -112 -3 -238 l0 -231 -157 3 -158 3 -3 238 -2 237 162 -2 c90 -2 162 -6
161 -10z m352 -228 l0 -235 -157 -3 -158 -3 0 241 0 241 158 -3 157 -3 0 -235z
m-1415 -505 l0 -235 -160 0 -160 0 0 235 0 235 160 0 160 0 0 -235z m358 3
l-3 -233 -162 -3 -163 -2 0 235 0 235 165 0 165 0 -2 -232z m352 -3 l0 -235
-160 0 -160 0 0 235 0 235 160 0 160 0 0 -235z m352 0 l-3 -235 -159 0 -160 0
0 235 0 235 163 0 162 0 -3 -235z m358 0 l0 -235 -160 0 -160 0 0 235 0 235
160 0 160 0 0 -235z"/>
<path d="M8070 2505 l0 -1375 900 0 900 0 0 570 0 570 40 20 c51 26 74 69 67
127 -5 50 -28 80 -74 100 l-33 13 0 675 0 675 -900 0 -900 0 0 -1375z m308
1226 l52 -1 0 -275 0 -275 -159 0 -159 0 -4 273 c-3 149 -3 275 -1 279 2 4 52
6 111 4 59 -2 131 -4 160 -5z m402 -276 l0 -275 -160 0 -160 0 0 275 0 275
160 0 160 0 0 -275z m350 0 l0 -275 -160 0 -160 0 0 275 0 275 160 0 160 0 0
-275z m360 0 l0 -275 -160 0 -160 0 0 275 0 275 160 0 160 0 0 -275z m350 0
l0 -275 -160 0 -160 0 0 275 0 275 160 0 160 0 0 -275z m-2 -547 l2 -238 -160
0 -160 0 0 235 0 234 128 4 c70 2 141 3 157 3 l30 -1 3 -237z m-1410 0 l-3
-233 -157 -3 -158 -3 0 236 0 235 160 0 160 0 -2 -232z m352 -3 l0 -235 -160
0 -160 0 0 235 0 235 160 0 160 0 0 -235z m350 0 l0 -236 -157 3 -158 3 -3
233 -2 232 160 0 160 0 0 -235z m360 0 l0 -235 -160 0 -160 0 0 235 0 235 160
0 160 0 0 -235z m-1060 -319 c0 -53 -1 -55 -35 -66 -42 -14 -75 -58 -82 -108
-6 -47 27 -100 80 -125 35 -18 37 -21 37 -68 l0 -49 -160 0 -160 0 0 235 0
235 160 0 160 0 0 -54z m350 -1 l0 -55 -160 0 -160 0 0 55 0 55 160 0 160 0 0
-55z m350 0 l0 -55 -160 0 -160 0 0 55 0 55 160 0 160 0 0 -55z m360 0 l0 -55
-160 0 -160 0 0 55 0 55 160 0 160 0 0 -55z m350 0 l0 -55 -160 0 -160 0 0 55
0 55 160 0 160 0 0 -55z m-1062 -362 l3 -53 -160 0 -161 0 0 55 0 56 158 -3
157 -3 3 -52z m352 2 l0 -55 -160 0 -160 0 0 48 c0 27 3 52 7 55 3 4 75 7 160
7 l153 0 0 -55z m358 -2 l3 -53 -160 0 -161 0 0 55 0 56 158 -3 157 -3 3 -52z
m350 0 l3 -53 -160 0 -161 0 0 48 c0 27 3 52 7 56 4 3 75 5 157 4 l151 -3 3
-52z m-1410 -320 l-3 -238 -157 -3 -158 -3 0 241 0 240 160 0 160 0 -2 -237z
m350 0 l-3 -238 -157 -3 -158 -3 0 241 0 240 160 0 160 0 -2 -237z m352 -3 l0
-241 -157 3 -158 3 -3 238 -2 237 160 0 160 0 0 -240z m360 185 c0 -52 -1 -55
-32 -68 -47 -20 -70 -50 -75 -100 -7 -58 16 -101 68 -127 40 -21 40 -21 37
-73 l-3 -52 -157 -3 -158 -3 0 241 0 240 160 0 160 0 0 -55z m348 -182 l-3
-238 -157 -3 -158 -3 0 60 c0 53 2 59 23 65 12 3 35 19 51 35 59 61 38 164
-39 197 -34 14 -35 16 -35 69 l0 55 160 0 160 0 -2 -237z m-1408 -508 l0 -235
-162 2 -161 3 -3 135 c-1 74 0 179 3 233 l6 97 159 0 158 0 0 -235z m350 182
c0 -51 -1 -53 -33 -65 -45 -16 -82 -80 -74 -129 8 -49 33 -82 73 -99 33 -14
34 -16 34 -69 l0 -55 -160 0 -160 0 0 235 0 235 160 0 160 0 0 -53z m350 -2
c0 -41 -4 -55 -14 -55 -27 0 -76 -51 -86 -91 -14 -52 9 -104 63 -138 35 -23
37 -27 37 -78 l0 -53 -160 0 -160 0 0 55 c0 53 1 55 33 69 19 7 43 26 55 41
47 59 14 169 -56 190 -31 9 -32 11 -32 62 l0 53 160 0 160 0 0 -55z m358 -177
l-3 -233 -159 0 -159 0 0 53 c0 50 2 54 33 70 99 50 99 176 2 222 -29 14 -32
18 -32 68 l0 52 160 0 160 0 -2 -232z m352 -3 l0 -235 -160 0 -160 0 0 235 0
235 160 0 160 0 0 -235z"/>
<path d="M10440 2505 l0 -1375 900 0 900 0 0 825 0 825 34 14 c96 40 99 180 5
223 l-38 18 -1 423 0 422 -900 0 -900 0 0 -1375z m350 950 l0 -286 -157 3
-158 3 -3 270 c-1 148 0 275 3 282 3 10 44 13 160 13 l155 0 0 -285z m355 0
l0 -280 -157 -3 -157 -3 -3 281 c-2 180 1 282 7 284 6 3 78 4 160 3 l150 -2 0
-280z m350 0 l0 -280 -155 0 -155 0 -3 270 c-1 148 0 276 3 283 3 10 40 12
157 10 l153 -3 0 -280z m351 276 c5 -6 8 -121 6 -286 l-3 -276 -157 3 -157 3
-3 270 c-1 148 0 275 3 282 5 16 295 19 311 4z m362 -278 l2 -283 -160 0 -160
0 0 285 0 286 158 -3 157 -3 3 -282z m-10 -312 c9 -5 12 -25 10 -57 l-3 -49
-157 -3 -158 -3 0 55 0 55 78 4 c162 7 217 6 230 -2z m-1408 -54 c0 -50 -2
-53 -36 -72 -87 -47 -84 -174 6 -220 28 -14 30 -19 30 -70 l0 -55 -160 0 -160
0 0 235 0 235 160 0 160 0 0 -53z m358 1 l-3 -53 -157 -3 -158 -3 0 56 0 55
161 0 160 0 -3 -52z m352 -3 l0 -55 -160 0 -160 0 0 55 0 55 160 0 160 0 0
-55z m350 0 l0 -56 -157 3 -158 3 -3 53 -3 52 160 0 161 0 0 -55z m-702 -357
l-3 -53 -154 -3 c-85 -1 -157 1 -161 5 -4 5 -5 29 -2 56 l4 47 160 0 159 0 -3
-52z m352 -3 l0 -55 -160 0 -160 0 0 55 0 55 160 0 160 0 0 -55z m353 43 c2
-7 4 -31 3 -53 l-1 -40 -162 -3 -163 -2 0 55 0 55 159 0 c118 0 160 -3 164
-12z m357 -43 l0 -55 -160 0 -160 0 0 55 0 55 160 0 160 0 0 -55z m-1420 -320
l0 -235 -160 0 -160 0 0 235 0 235 160 0 160 0 0 -235z m360 1 c0 -209 -2
-235 -16 -238 -9 -2 -84 -2 -165 0 l-149 3 0 228 c0 125 3 231 7 234 3 4 78 7
165 7 l158 0 0 -234z m350 -1 l0 -235 -160 0 -160 0 0 235 0 235 160 0 160 0
0 -235z m355 181 c0 -47 -2 -50 -39 -71 -46 -26 -65 -57 -66 -108 0 -53 24
-93 68 -116 36 -19 37 -20 34 -70 l-4 -51 -159 0 -159 0 0 235 0 235 163 -2
162 -3 0 -49z m355 -181 l0 -235 -160 0 -160 0 0 53 c0 50 2 54 32 68 46 21
71 60 71 113 0 54 -22 91 -68 113 -33 16 -35 19 -35 70 l0 53 160 0 160 0 0
-235z m-1419 -382 c0 -65 3 -163 5 -218 6 -159 21 -146 -164 -143 l-157 3 -3
225 c-1 123 0 230 2 237 4 10 44 13 161 13 l155 0 1 -117z m357 -120 l-3 -238
-160 0 -160 0 -2 70 c-1 39 1 145 4 238 l6 167 158 0 159 0 -2 -237z m352 180
c-1 -57 -1 -58 -39 -76 -44 -20 -66 -55 -66 -107 0 -52 22 -88 67 -111 37 -19
38 -21 38 -74 l0 -55 -160 0 -160 0 0 240 0 240 160 0 160 0 0 -57z m353 12
c-1 -22 -1 -129 -2 -238 l-1 -198 -157 3 -158 3 -3 52 c-3 51 -2 53 31 66 18
8 44 27 56 43 19 24 22 38 19 81 -5 59 -25 88 -75 110 -31 12 -33 17 -33 61 0
27 3 52 7 56 4 3 76 5 161 4 l155 -3 0 -40z m352 -195 l0 -235 -157 -3 -158
-3 0 241 0 241 158 -3 157 -3 0 -235z m-1415 -505 l0 -235 -160 0 -160 0 0
235 0 235 160 0 160 0 0 -235z m360 0 l0 -235 -160 0 -160 0 0 235 0 235 160
0 160 0 0 -235z m350 0 l0 -235 -160 0 -160 0 0 235 0 235 160 0 160 0 0 -235z
m354 218 c-1 -7 -2 -112 -2 -233 l-2 -220 -160 0 -160 0 0 235 0 235 163 -2
c122 -2 162 -6 161 -15z m356 -218 l0 -235 -160 0 -160 0 0 235 0 235 160 0
160 0 0 -235z"/>
<path d="M12860 2505 l0 -1375 900 0 900 0 0 1375 0 1375 -900 0 -900 0 0
-1375z m355 955 l0 -275 -162 -3 -163 -2 0 273 c0 151 3 277 7 281 4 3 77 5
162 4 l156 -3 0 -275z m355 0 l0 -280 -160 0 -160 0 0 280 0 280 160 0 160 0
0 -280z m350 0 l0 -281 -157 3 -158 3 -3 265 c-1 146 0 270 3 277 3 10 44 13
160 13 l155 0 0 -280z m358 -2 l2 -278 -160 0 -160 0 0 280 0 281 158 -3 157
-3 3 -277z m352 2 l0 -280 -160 0 -160 0 0 280 0 280 160 0 160 0 0 -280z
m-1412 -367 c3 -51 2 -52 -33 -69 -96 -45 -99 -176 -5 -224 41 -21 41 -21 38
-73 l-3 -52 -160 0 -160 0 -3 225 c-1 123 0 230 3 238 3 10 40 12 162 10 l158
-3 3 -52z m352 2 c0 -49 -3 -57 -23 -64 -13 -5 -36 -24 -50 -41 -21 -25 -27
-42 -27 -82 0 -44 4 -54 34 -84 19 -19 41 -34 50 -34 13 0 16 -12 16 -60 l0
-60 -160 0 -160 0 0 55 c0 53 1 55 35 69 50 21 77 69 72 129 -5 53 -26 83 -74
104 -32 13 -33 16 -33 68 l0 55 160 0 160 0 0 -55z m350 -185 l0 -241 -157 3
-158 3 -3 53 c-3 49 -1 53 25 63 108 41 119 177 17 230 -42 23 -44 26 -44 70
0 25 3 49 7 52 3 4 75 7 160 7 l153 0 0 -240z m355 0 l0 -235 -157 -3 -158 -3
0 241 0 241 158 -3 157 -3 0 -235z m355 0 l0 -240 -160 0 -160 0 0 233 c0 129
3 237 7 240 3 4 75 7 160 7 l153 0 0 -240z m-1410 -505 l0 -235 -165 0 -165 0
0 235 0 235 165 0 165 0 0 -235z m350 0 l0 -235 -160 0 -160 0 0 235 0 235
160 0 160 0 0 -235z m354 218 c-1 -7 -2 -112 -2 -233 l-2 -220 -160 0 -160 0
0 235 0 235 163 -2 c122 -2 162 -6 161 -15z m356 -218 l0 -235 -160 2 -160 3
-1 225 c0 124 0 228 0 233 1 4 73 7 161 7 l160 0 0 -235z m350 0 l0 -235 -160
0 -160 0 0 235 0 235 160 0 160 0 0 -235z m-1412 -502 l2 -233 -165 0 -165 0
0 228 c0 126 3 232 7 236 4 3 77 5 162 4 l156 -3 3 -232z m352 2 l0 -235 -160
0 -160 0 0 235 0 235 160 0 160 0 0 -235z m350 0 l0 -236 -157 3 -158 3 -3
220 c-1 121 0 225 2 232 4 10 44 13 161 13 l155 0 0 -235z m358 -2 l2 -233
-160 0 -160 0 0 235 0 236 158 -3 157 -3 3 -232z m352 2 l0 -235 -160 0 -160
0 0 235 0 235 160 0 160 0 0 -235z m-1415 -510 l0 -230 -162 -3 -163 -2 0 235
0 235 163 -2 162 -3 0 -230z m355 0 l0 -235 -160 0 -160 0 0 235 0 235 160 0
160 0 0 -235z m350 0 l0 -236 -157 3 -158 3 -3 233 -2 232 160 0 160 0 0 -235z
m360 0 l0 -235 -160 0 -160 0 0 235 0 235 160 0 160 0 0 -235z m350 0 l0 -235
-160 0 -160 0 0 235 0 235 160 0 160 0 0 -235z"/>
<path d="M1030 2500 l0 -1370 895 0 895 0 0 1370 0 1370 -895 0 -895 0 0
-1370z m350 950 l0 -280 -160 0 -160 0 0 280 0 280 160 0 160 0 0 -280z m350
0 l0 -280 -160 0 -160 0 0 280 0 280 160 0 160 0 0 -280z m350 0 l0 -280 -160
0 -160 0 0 280 0 280 160 0 160 0 0 -280z m355 0 l0 -275 -160 0 -160 0 -3
265 c-1 146 0 270 3 278 3 10 41 12 162 10 l158 -3 0 -275z m355 0 l0 -280
-160 0 -160 0 0 280 0 280 160 0 160 0 0 -280z m-1410 -545 l0 -235 -160 0
-160 0 0 235 0 235 160 0 160 0 0 -235z m350 180 c0 -53 -1 -55 -34 -69 -45
-19 -71 -60 -71 -111 0 -51 25 -91 70 -112 33 -16 35 -19 35 -70 l0 -53 -160
0 -160 0 0 235 0 235 160 0 160 0 0 -55z m350 -180 l0 -235 -160 0 -160 0 0
53 c0 52 1 53 36 66 98 35 99 185 2 228 -37 16 -38 18 -38 70 l0 53 160 0 160
0 0 -235z m358 179 c3 -49 2 -52 -28 -64 -103 -43 -108 -174 -8 -230 36 -20
38 -24 38 -71 l0 -49 -165 0 -165 0 0 228 c0 126 3 232 7 236 4 3 77 5 162 4
l156 -3 3 -51z m352 -179 l0 -235 -160 0 -160 0 0 54 c0 48 3 54 23 60 12 3
35 19 51 35 59 61 39 161 -39 198 -34 16 -35 19 -35 70 l0 53 160 0 160 0 0
-235z m-1410 -500 l0 -235 -160 0 -160 0 0 235 0 235 160 0 160 0 0 -235z
m350 0 l0 -235 -160 0 -160 0 0 235 0 235 160 0 160 0 0 -235z m350 0 l0 -235
-160 0 -160 0 0 235 0 235 160 0 160 0 0 -235z m358 -2 l2 -233 -165 0 -165 0
0 228 c0 126 3 232 7 236 4 3 77 5 162 4 l156 -3 3 -232z m352 2 l0 -235 -160
0 -160 0 0 235 0 235 160 0 160 0 0 -235z m-1410 -510 l0 -235 -160 0 -160 0
0 235 0 235 160 0 160 0 0 -235z m350 0 l0 -235 -160 0 -160 0 0 235 0 235
160 0 160 0 0 -235z m350 0 l0 -235 -160 0 -160 0 0 235 0 235 160 0 160 0 0
-235z m358 3 l-3 -233 -160 0 -160 0 -3 220 c-1 121 0 225 2 232 4 10 45 13
166 13 l160 0 -2 -232z m352 -3 l0 -235 -160 0 -160 0 0 235 0 235 160 0 160
0 0 -235z m-1410 -500 l0 -235 -160 0 -160 0 0 235 0 235 160 0 160 0 0 -235z
m350 0 l0 -235 -160 0 -160 0 0 235 0 235 160 0 160 0 0 -235z m350 0 l0 -235
-160 0 -160 0 0 235 0 235 160 0 160 0 0 -235z m360 0 l0 -235 -162 2 -163 3
-3 220 c-1 121 0 225 2 232 4 10 45 13 166 13 l160 0 0 -235z m350 0 l0 -235
-160 0 -160 0 0 235 0 235 160 0 160 0 0 -235z"/>
<path d="M15180 2500 l0 -1370 895 0 895 0 0 823 0 823 36 13 c98 35 99 185 2
228 l-38 17 0 418 0 418 -895 0 -895 0 0 -1370z m350 950 l0 -280 -160 0 -160
0 0 280 0 280 160 0 160 0 0 -280z m350 0 l0 -280 -160 0 -160 0 0 280 0 280
160 0 160 0 0 -280z m360 0 l0 -280 -160 0 -159 0 -3 276 c-2 152 -1 278 1
280 2 2 76 4 163 4 l158 0 0 -280z m350 205 l0 -75 -35 -14 c-77 -33 -98 -136
-39 -197 16 -16 39 -32 51 -35 22 -6 23 -11 23 -85 l0 -79 -160 0 -160 0 0
280 0 280 160 0 160 0 0 -75z m350 -205 l0 -280 -160 0 -160 0 0 78 1 77 37
17 c100 46 95 185 -8 228 -30 12 -30 14 -30 86 l0 74 160 0 160 0 0 -280z
m-1410 -545 l0 -235 -160 0 -160 0 0 235 0 235 160 0 160 0 0 -235z m352 0 l3
-235 -162 0 -163 0 0 235 0 235 160 0 159 0 3 -235z m358 180 c0 -50 -2 -55
-25 -61 -14 -3 -38 -22 -55 -40 -55 -64 -31 -169 44 -194 35 -11 36 -12 36
-66 l0 -54 -162 0 -163 0 3 235 3 235 159 0 160 0 0 -55z m350 -180 l0 -235
-160 0 -160 0 0 53 c0 51 2 54 35 70 46 22 70 61 69 113 -1 53 -24 90 -69 111
-33 16 -35 19 -35 70 l0 53 160 0 160 0 0 -235z m350 182 c0 -51 -2 -54 -35
-70 -45 -21 -70 -61 -70 -112 0 -51 25 -91 70 -112 33 -16 35 -19 35 -70 l0
-53 -160 0 -160 0 0 235 0 235 160 0 160 0 0 -53z m-1410 -682 l0 -235 -160 0
-160 0 0 235 0 235 160 0 160 0 0 -235z m353 128 c3 -60 3 -165 0 -235 l-6
-128 -159 0 -158 0 0 228 c0 126 3 232 7 235 3 4 75 7 158 7 l152 0 6 -107z
m357 -128 l0 -235 -162 0 -163 0 1 228 c1 125 2 230 3 235 0 4 73 7 161 7
l160 0 0 -235z m350 0 l0 -235 -160 0 -160 0 0 235 0 235 160 0 160 0 0 -235z
m350 0 l0 -235 -160 0 -160 0 0 235 0 235 160 0 160 0 0 -235z m-1410 -510 l0
-235 -160 0 -160 0 0 235 0 235 160 0 160 0 0 -235z m350 0 l0 -235 -160 0
-160 0 0 235 0 235 160 0 160 0 0 -235z m360 0 l0 -235 -160 2 -161 3 0 218
c0 119 1 224 1 232 0 13 25 15 160 15 l160 0 0 -235z m350 0 l0 -235 -160 0
-160 0 0 235 0 235 160 0 160 0 0 -235z m350 0 l0 -235 -160 0 -160 0 0 235 0
235 160 0 160 0 0 -235z m-1410 -500 l0 -235 -160 0 -160 0 0 235 0 235 160 0
160 0 0 -235z m350 0 l0 -235 -160 0 -160 0 0 235 0 235 160 0 160 0 0 -235z
m360 0 l0 -235 -162 0 -163 0 3 235 3 235 159 0 160 0 0 -235z m350 0 l0 -235
-160 0 -160 0 0 235 0 235 160 0 160 0 0 -235z m350 0 l0 -235 -160 0 -160 0
0 235 0 235 160 0 160 0 0 -235z"/>
</g>
</svg>
